<svg width="16" height="13" viewBox="0 0 16 13" fill="none" xmlns="http://www.w3.org/2000/svg">
  <mask id="mask0_2092_1140" style="mask-type:luminance" maskUnits="userSpaceOnUse" x="0" y="0" width="16" height="13">
    <rect y="0.5" width="16" height="12" fill="white"/>
  </mask>
  <g mask="url(#mask0_2092_1140)">
    <path fill-rule="evenodd" clip-rule="evenodd" d="M0 0.5H16V12.5H0V0.5Z" fill="#73BE4A"/>
    <path fill-rule="evenodd" clip-rule="evenodd" d="M0 0.5V8.5H16V0.5H0Z" fill="#AF0100"/>
    <rect y="0.5" width="3" height="12" fill="#F7FCFF"/>
    <path fill-rule="evenodd" clip-rule="evenodd" d="M0.499989 0.5C0.776153 0.5 0.999985 0.723875 0.999985 1.00001C0.999985 1.27614 0.776153 1.50002 0.499989 1.50002C0.223888 1.50002 0 1.27614 0 1.00001C0 0.723875 0.223888 0.5 0.499989 0.5ZM2.50003 0.5C2.77613 0.5 3.00002 0.723875 3.00002 1.00001C3.00002 1.27614 2.77613 1.50002 2.50003 1.50002C2.22387 1.50002 2.00003 1.27614 2.00003 1.00001C2.00003 0.723875 2.22387 0.5 2.50003 0.5ZM0.999985 3.00002C0.999985 2.72384 0.776153 2.50001 0.499989 2.50001C0.223888 2.50001 0 2.72384 0 3.00002C0 3.27615 0.223888 3.49998 0.499989 3.49998C0.776153 3.49998 0.999985 3.27615 0.999985 3.00002ZM2.50003 2.50001C2.77613 2.50001 3.00002 2.72384 3.00002 3.00002C3.00002 3.27615 2.77613 3.49998 2.50003 3.49998C2.22387 3.49998 2.00003 3.27615 2.00003 3.00002C2.00003 2.72384 2.22387 2.50001 2.50003 2.50001ZM2.50003 9.50001C2.77613 9.50001 3.00002 9.72385 3.00002 10C3.00002 10.2761 2.77613 10.5 2.50003 10.5C2.22387 10.5 2.00003 10.2761 2.00003 10C2.00003 9.72385 2.22387 9.50001 2.50003 9.50001ZM0.999985 10C0.999985 9.72385 0.776153 9.50001 0.499989 9.50001C0.223888 9.50001 0 9.72385 0 10C0 10.2761 0.223888 10.5 0.499989 10.5C0.776153 10.5 0.999985 10.2761 0.999985 10ZM0.499989 11.5C0.776153 11.5 0.999985 11.7239 0.999985 12C0.999985 12.2762 0.776153 12.5 0.499989 12.5C0.223888 12.5 0 12.2762 0 12C0 11.7239 0.223888 11.5 0.499989 11.5ZM3.00002 12C3.00002 11.7239 2.77613 11.5 2.50003 11.5C2.22387 11.5 2.00003 11.7239 2.00003 12C2.00003 12.2762 2.22387 12.5 2.50003 12.5C2.77613 12.5 3.00002 12.2762 3.00002 12ZM1.49997 10.5C1.77614 10.5 2.00003 10.7239 2.00003 11C2.00003 11.2761 1.77614 11.5 1.49997 11.5C1.22388 11.5 0.999985 11.2761 0.999985 11C0.999985 10.7239 1.22388 10.5 1.49997 10.5ZM2.00003 2C2.00003 1.72387 1.77614 1.50002 1.49997 1.50002C1.22388 1.50002 0.999985 1.72387 0.999985 2C0.999985 2.27613 1.22388 2.50001 1.49997 2.50001C1.77614 2.50001 2.00003 2.27613 2.00003 2ZM2.05499 6.51935L3.00002 7.5V8.49998L3.02189 8.54642L1.54555 7.06887L0.218827 8.49998H0.000126004V7.5L0.991283 6.51416L0.000126004 5.52219V4.50002H0.109025L1.53185 5.97649L2.9616 4.55439L3.00002 4.50002V5.49996L2.05499 6.51935ZM1.49997 3.49998C1.77614 3.49998 2.00003 3.72388 2.00003 3.99999C2.00003 4.27613 1.77614 4.50002 1.49997 4.50002C1.22388 4.50002 0.999985 4.27613 0.999985 3.99999C0.999985 3.72388 1.22388 3.49998 1.49997 3.49998ZM2.00003 8.99999C2.00003 8.72387 1.77614 8.49998 1.49997 8.49998C1.22388 8.49998 0.999985 8.72387 0.999985 8.99999C0.999985 9.27612 1.22388 9.50001 1.49997 9.50001C1.77614 9.50001 2.00003 9.27612 2.00003 8.99999Z" fill="#D0181A"/>
    <path opacity="0.4" fill-rule="evenodd" clip-rule="evenodd" d="M0 0.5H0.999985V1.50002H0V0.5ZM0.999985 2.50001H0V3.49998H0.999985V2.50001ZM0 4.50002H0.999985V5.5H0V4.50002ZM0.999985 7.5H0V8.49998H0.999985V7.5ZM0 9.50001H0.999985V10.5H0V9.50001ZM0.999985 11.5H0V12.5H0.999985V11.5ZM3.00002 11.5H2.00003V12.5H3.00002V11.5ZM3.00002 0.5H2.00003V1.50002H3.00002V0.5Z" fill="#8F181A"/>
  </g>
</svg>
