<svg width="16" height="13" viewBox="0 0 16 13" fill="none" xmlns="http://www.w3.org/2000/svg">
  <mask id="mask0_2092_1228" style="mask-type:luminance" maskUnits="userSpaceOnUse" x="0" y="0" width="16" height="13">
    <rect y="0.5" width="16" height="12" fill="white"/>
  </mask>
  <g mask="url(#mask0_2092_1228)">
    <path fill-rule="evenodd" clip-rule="evenodd" d="M0 0.5V12.5H16V0.5H0Z" fill="#F7FCFF"/>
    <mask id="mask1_2092_1228" style="mask-type:luminance" maskUnits="userSpaceOnUse" x="0" y="0" width="16" height="13">
      <path fill-rule="evenodd" clip-rule="evenodd" d="M0 0.5V12.5H16V0.5H0Z" fill="white"/>
    </mask>
    <g mask="url(#mask1_2092_1228)">
      <path fill-rule="evenodd" clip-rule="evenodd" d="M7 0.5H9V5.5H16V7.5H9V12.5H7V7.5H0V5.5H7V0.5Z" fill="#E31D1C"/>
      <path fill-rule="evenodd" clip-rule="evenodd" d="M4.99895 9.11098L6.09961 9V10C6.09961 10 4.99895 9.93108 4.99895 9.95098C4.99895 9.97088 5.09961 11 5.09961 11H4.09961L4.17972 10H3.09961V9L4.17972 9.11098L4.09961 8H5.09961L4.99895 9.11098Z" fill="#E31D1C"/>
      <path fill-rule="evenodd" clip-rule="evenodd" d="M4.99895 3.11098L6.09961 3V4C6.09961 4 4.99895 3.93108 4.99895 3.95098C4.99895 3.97088 5.09961 5 5.09961 5H4.09961L4.17972 4H3.09961V3L4.17972 3.11098L4.09961 2H5.09961L4.99895 3.11098Z" fill="#E31D1C"/>
      <path fill-rule="evenodd" clip-rule="evenodd" d="M11.999 3.11098L13.0996 3V4C13.0996 4 11.999 3.93108 11.999 3.95098C11.999 3.97088 12.0996 5 12.0996 5H11.0996L11.1797 4H10.0996V3L11.1797 3.11098L11.0996 2H12.0996L11.999 3.11098Z" fill="#E31D1C"/>
      <path fill-rule="evenodd" clip-rule="evenodd" d="M11.999 9.11098L13.0996 9V10C13.0996 10 11.999 9.93108 11.999 9.95098C11.999 9.97088 12.0996 11 12.0996 11H11.0996L11.1797 10H10.0996V9L11.1797 9.11098L11.0996 8H12.0996L11.999 9.11098Z" fill="#E31D1C"/>
    </g>
  </g>
</svg>
