<svg width="16" height="13" viewBox="0 0 16 13" fill="none" xmlns="http://www.w3.org/2000/svg">
  <mask id="mask0_2092_1070" style="mask-type:luminance" maskUnits="userSpaceOnUse" x="0" y="0" width="16" height="13">
    <rect y="0.5" width="16" height="12" fill="white"/>
  </mask>
  <g mask="url(#mask0_2092_1070)">
    <path fill-rule="evenodd" clip-rule="evenodd" d="M0 0.5V12.5H16V0.5H0Z" fill="#3D58DB"/>
    <mask id="mask1_2092_1070" style="mask-type:luminance" maskUnits="userSpaceOnUse" x="0" y="0" width="16" height="13">
      <path fill-rule="evenodd" clip-rule="evenodd" d="M0 0.5V12.5H16V0.5H0Z" fill="white"/>
    </mask>
    <g mask="url(#mask1_2092_1070)">
      <path fill-rule="evenodd" clip-rule="evenodd" d="M0 0.5V4.5H16V0.5H0Z" fill="#F7FCFF"/>
      <path fill-rule="evenodd" clip-rule="evenodd" d="M0 8.5V12.5H16V8.5H0Z" fill="#E31D1C"/>
      <path d="M7.80165 3.51514L8.05025 3.48869L8.02646 3.26514H7.80165H3.17211H2.9384L2.92268 3.49832L3.17211 3.51514L2.92267 3.49836L2.92266 3.49847L2.92264 3.49887L2.92254 3.5004L2.92214 3.50637L2.92061 3.52949L2.91494 3.61759C2.91012 3.69378 2.90334 3.8034 2.89555 3.93738C2.87997 4.20526 2.86027 4.57086 2.84386 4.96145C2.81152 5.73125 2.79008 6.63244 2.84609 7.0533C2.95537 7.87454 3.45544 9.71811 5.3896 10.5536L5.49048 10.5972L5.59079 10.5523C7.42789 9.73085 8.04233 8.07654 8.18405 7.05467C8.25558 6.53895 8.21923 5.63653 8.16902 4.88663C8.14358 4.50662 8.11391 4.15745 8.09062 3.90335C8.07897 3.77625 8.0689 3.67281 8.06173 3.60105L8.05332 3.51814L8.05106 3.49636L8.05046 3.49071L8.05031 3.48924L8.05027 3.48885L8.05025 3.48874L7.80165 3.51514Z" fill="#E31D1C" stroke="white" stroke-width="0.5"/>
      <mask id="mask2_2092_1070" style="mask-type:luminance" maskUnits="userSpaceOnUse" x="2" y="3" width="7" height="8">
        <path d="M7.80165 3.51514L8.05025 3.48869L8.02646 3.26514H7.80165H3.17211H2.9384L2.92268 3.49832L3.17211 3.51514L2.92267 3.49836L2.92266 3.49847L2.92264 3.49887L2.92254 3.5004L2.92214 3.50637L2.92061 3.52949L2.91494 3.61759C2.91012 3.69378 2.90334 3.8034 2.89555 3.93738C2.87997 4.20526 2.86027 4.57086 2.84386 4.96145C2.81152 5.73125 2.79008 6.63244 2.84609 7.0533C2.95537 7.87454 3.45544 9.71811 5.3896 10.5536L5.49048 10.5972L5.59079 10.5523C7.42789 9.73085 8.04233 8.07654 8.18405 7.05467C8.25558 6.53895 8.21923 5.63653 8.16902 4.88663C8.14358 4.50662 8.11391 4.15745 8.09062 3.90335C8.07897 3.77625 8.0689 3.67281 8.06173 3.60105L8.05332 3.51814L8.05106 3.49636L8.05046 3.49071L8.05031 3.48924L8.05027 3.48885L8.05025 3.48874L7.80165 3.51514Z" fill="white" stroke="white" stroke-width="0.5"/>
      </mask>
      <g mask="url(#mask2_2092_1070)">
        <path fill-rule="evenodd" clip-rule="evenodd" d="M4.93087 3.7948C4.93087 3.7948 5.03411 3.95211 5.08033 4.19265C5.12655 4.43319 5.13452 4.70683 5.13452 4.70683L4.35249 4.58623V5.4767L5.15641 5.34918L5.13236 6.28295C5.13236 6.28295 5.0302 6.314 4.78451 6.28295C4.53882 6.25189 4.05481 6.1218 4.05481 6.1218V6.97199C4.05481 6.97199 4.54656 6.81467 4.78451 6.77857C5.02247 6.74247 5.13236 6.77857 5.13236 6.77857L5.14013 7.59383H5.9375L5.92972 6.77857C5.92972 6.77857 6.18066 6.73994 6.44575 6.78176C6.71083 6.82358 6.96229 6.97199 6.96229 6.97199V6.1218C6.96229 6.1218 6.70754 6.24872 6.46726 6.2803C6.22699 6.31188 5.92972 6.28295 5.92972 6.28295L5.95377 5.34918C5.95377 5.34918 6.09294 5.31475 6.27955 5.34008C6.46616 5.36541 6.69972 5.4767 6.69972 5.4767V4.58623C6.69972 4.58623 6.47207 4.7101 6.29296 4.73257C6.11384 4.75504 5.93189 4.70683 5.93189 4.70683C5.93189 4.70683 5.93854 4.41972 5.97706 4.20794C6.01557 3.99616 6.12463 3.7948 6.12463 3.7948H4.93087Z" fill="#F7FCFF"/>
        <path fill-rule="evenodd" clip-rule="evenodd" d="M3.44836 8.62262C3.44836 8.62262 3.66811 8.15099 4.02568 8.06131C4.38325 7.97163 4.75819 8.34196 4.75819 8.34196C4.75819 8.34196 4.98714 7.59375 5.54519 7.59375C6.10324 7.59375 6.29909 8.34196 6.29909 8.34196C6.29909 8.34196 6.53718 8.06131 6.87957 8.06131C7.22196 8.06131 7.53918 8.62262 7.53918 8.62262C7.53918 8.62262 6.51648 10.4793 5.49377 10.4793C4.47107 10.4793 3.44836 8.62262 3.44836 8.62262Z" fill="#2E42A5"/>
      </g>
    </g>
  </g>
</svg>
