<svg width="16" height="13" viewBox="0 0 16 13" fill="none" xmlns="http://www.w3.org/2000/svg">
  <mask id="a" style="mask-type:luminance" maskUnits="userSpaceOnUse" x="0" y="0" width="16" height="13">
    <path fill="#fff" d="M0 .5h16v12H0z"/>
  </mask>
  <g mask="url(#a)">
    <path fill-rule="evenodd" clip-rule="evenodd" d="M0 .5v12h16V.5H0z" fill="#FFB400"/>
    <mask id="b" style="mask-type:luminance" maskUnits="userSpaceOnUse" x="0" y="0" width="16" height="13">
      <path fill-rule="evenodd" clip-rule="evenodd" d="M0 .5v12h16V.5H0z" fill="#fff"/>
    </mask>
    <g mask="url(#b)">
      <path fill-rule="evenodd" clip-rule="evenodd" d="M0 .5v3h16v-3H0zM0 9.5v3h16v-3H0z" fill="#C51918"/>
      <path fill="#F1F9FF" d="M2.5 5.6h.6v2.9h-.6z"/>
      <path fill-rule="evenodd" clip-rule="evenodd" d="M3.3 5.1h-1v.3h.1v.2h.7v-.2h.2v-.3zM3.1 8.7h.2V9h-1v-.3h.1v-.2h.7v.2z" fill="#C88A02"/>
      <path fill-rule="evenodd" clip-rule="evenodd" d="M2.8 5.2L3 5l.2-.2c0-.2-.2-.3-.4-.3s-.4.1-.4.3l.1.2h.3z" fill="#AD1619"/>
      <path fill-rule="evenodd" clip-rule="evenodd" d="M2.3 9h1v.4H3h-.2-.3-.2V9z" fill="#005BBF"/>
      <mask id="c" style="mask-type:luminance" maskUnits="userSpaceOnUse" x="2" y="8" width="2" height="2">
        <path fill-rule="evenodd" clip-rule="evenodd" d="M2.3 9h1v.4H3h-.2-.3-.2V9z" fill="#fff"/>
      </mask>
      <path fill="#F1F9FF" d="M8 5.6h.6v2.9H8z"/>
      <path fill-rule="evenodd" clip-rule="evenodd" d="M8.8 5.1h-1v.3h.1v.2h.7v-.2h.2v-.3zM8.6 8.7h.2V9h-1v-.3h.1v-.2h.7v.2z" fill="#C88A02"/>
      <path fill-rule="evenodd" clip-rule="evenodd" d="M8.3 5.2l.2-.1.2-.2c0-.2-.2-.3-.4-.3s-.4.1-.4.3L8 5h.3z" fill="#AD1619"/>
      <path fill-rule="evenodd" clip-rule="evenodd" d="M7.8 9h1v.4h-.5-.5V9z" fill="#005BBF"/>
      <mask id="d" style="mask-type:luminance" maskUnits="userSpaceOnUse" x="7" y="8" width="2" height="2">
        <path fill-rule="evenodd" clip-rule="evenodd" d="M7.8 9h1v.4h-.5-.5V9z" fill="#fff"/>
      </mask>
      <path fill-rule="evenodd" clip-rule="evenodd" d="M2.5 8.3l.2-.3-.1-.2h.1l.2-.2h.2l.1-.1.1-.1.2-.1v-.4L3 6.8H3l-.1-.1h1l.2-.3c-.4-.2-1.4-.2-1.8 0-.3.2-.2.5 0 .6l.6.2h-.1l-.1.1h-.2c-.2.2-.3.3-.3.6V8l.4.3zM2.2 8zm6.2 0l.1.3.4-.2v-.2c0-.3 0-.4-.3-.5a6.7 6.7 0 0 1-.4-.2l.6-.2c.2 0 .3-.4 0-.6-.4-.2-1.4-.2-1.8 0l.2.4c.2-.1.7-.2 1-.1H8c-.2 0-.3.1-.3.2-.2 0-.2.2 0 .4l.1.1.2.1.2.1.2.1h.1V8z" fill="#AD1619"/>
      <path d="M3 6.7H3V7l-.6.4v-.7H3zM8.2 6.7H8V7l.6.4v-.7h-.4z" fill="#F1F9FF"/>
      <path fill-rule="evenodd" clip-rule="evenodd" d="M7.4 4.1c-.3-.3-.6-.4-1-.4-.2-.1-.5-.2-.8-.1l-1 .1c-.4 0-.9.3-.9.3v.1l.6.6s.2.5 1.3.4h.8l.4-.4.6-.6zm-1.8-.5z" fill="#AD1619"/>
      <path fill-rule="evenodd" clip-rule="evenodd" d="M3.8 4.2l.5.4 1.2-.1 1.3.1v.1l.6-.5-.5.5-.1.2-.5.2H4.8c-.3 0-.4 0-.4-.2v-.1l-.1-.1-.5-.5zm2.8.8h.1-.4a7 7 0 0 1-1.8 0l1-.2c.2 0 1 0 1.1.2zm.2 0z" fill="#C88A02"/>
      <path fill-rule="evenodd" clip-rule="evenodd" d="M5.6 3.2a.2.2 0 1 0 0-.4.2.2 0 0 0 0 .4z" fill="#005BBF"/>
      <path fill-rule="evenodd" clip-rule="evenodd" d="M5.5 2.5h.1V3h-.2v-.5z" fill="#C88A02"/>
      <path fill="#C88A02" d="M5.5 3.2h.2v.7h-.2z"/>
      <path d="M3.9 4.1h-.4c.2-.8 1-1.2 2-1.2 1.2 0 1.9.4 2 1.2h-.4c0-.3-.7-.7-1.5-.7-.9 0-1.7.3-1.7.7z" fill="#C88A02"/>
      <path opacity=".3" fill-rule="evenodd" clip-rule="evenodd" d="M3.7 5.1h3.7v3.3S7 9.5 5.6 9.5C4 9.5 3.7 8.4 3.7 8.4V5z" fill="#E1E5E8"/>
      <mask id="e" style="mask-type:luminance" maskUnits="userSpaceOnUse" x="3" y="5" width="5" height="5">
        <path fill-rule="evenodd" clip-rule="evenodd" d="M3.7 5.1h3.7v3.3S7 9.5 5.6 9.5C4 9.5 3.7 8.4 3.7 8.4V5z" fill="#fff"/>
      </mask>
      <g mask="url(#e)">
        <path fill="#FFC034" d="M3.7 7.1h1.8v2.2H3.7z"/>
        <path fill="#AD1619" d="M3.7 5.1h1.8v2.1H3.7zM5.5 7.1h1.8v2.1H5.5z"/>
        <path fill="#F1F9FF" d="M5.5 5.1h2v2.1h-2z"/>
        <path fill-rule="evenodd" clip-rule="evenodd" d="M6.7 9.2s-1.1.1-1.1-.7c0 0 0 .7-1.3.7v.6h2.4v-.6z" fill="#F1F9FF"/>
        <path fill-rule="evenodd" clip-rule="evenodd" d="M5.6 7.6c.2 0 .4-.2.4-.5 0-.2-.2-.4-.4-.4-.3 0-.5.2-.5.4 0 .3.2.5.5.5z" fill="#005BBF" stroke="#AD1619" stroke-width=".6"/>
      </g>
      <path fill-rule="evenodd" clip-rule="evenodd" d="M4.5 6.5a.5.5 0 1 0 0-1 .5.5 0 0 0 0 1z" fill="#C88A02"/>
      <path fill-rule="evenodd" clip-rule="evenodd" d="M6.5 6.5a.5.5 0 1 0 0-1 .5.5 0 0 0 0 1z" fill="#C37C9C"/>
      <path fill-rule="evenodd" clip-rule="evenodd" d="M6.5 8.5a.5.5 0 1 0 0-1 .5.5 0 0 0 0 1z" fill="#FFC034"/>
      <path d="M4.5 8.5a.5.5 0 1 0 0-1 .5.5 0 0 0 0 1z" fill="#AD1619"/>
    </g>
  </g>
</svg>
