<svg width="16" height="13" viewBox="0 0 16 13" fill="none" xmlns="http://www.w3.org/2000/svg">
  <mask id="mask0_2092_1187" style="mask-type:luminance" maskUnits="userSpaceOnUse" x="0" y="0" width="16" height="13">
    <rect y="0.5" width="16" height="12" fill="white"/>
  </mask>
  <g mask="url(#mask0_2092_1187)">
    <path fill-rule="evenodd" clip-rule="evenodd" d="M0 0.5V12.5H16V0.5H0Z" fill="#4EC7EE"/>
    <mask id="mask1_2092_1187" style="mask-type:luminance" maskUnits="userSpaceOnUse" x="0" y="0" width="16" height="13">
      <path fill-rule="evenodd" clip-rule="evenodd" d="M0 0.5V12.5H16V0.5H0Z" fill="white"/>
    </mask>
    <g mask="url(#mask1_2092_1187)">
      <path d="M2.04504 12.1185C2.01331 12.3535 2.16384 12.5209 2.41635 12.6286C2.75581 12.7734 3.09833 12.6378 3.41339 12.2887L3.00509 11.9202C2.86513 12.0753 2.764 12.135 2.68593 12.134C2.83879 12.0248 3.03465 11.89 3.27321 11.7298L3.38772 11.5639C3.47968 11.1694 3.19372 10.9557 2.7576 10.9557C2.50072 10.9557 2.29535 11.0065 2.16505 11.1157C1.95098 11.2952 1.98763 11.5818 2.2129 11.7308C2.23077 11.7427 2.24891 11.7533 2.26729 11.7628C2.14091 11.8695 2.06379 11.9797 2.04504 12.1185Z" fill="#FFE402"/>
      <path d="M2.28247 11.7477C2.28247 11.7477 2.34486 11.6094 2.31367 11.5375" stroke="#FFE402" stroke-width="0.55"/>
      <path d="M4.28479 12.1185C4.31652 12.3535 4.166 12.5209 3.91349 12.6286C3.57403 12.7734 3.23151 12.6378 2.91644 12.2887L3.32474 11.9202C3.4647 12.0753 3.56584 12.135 3.64391 12.134C3.49104 12.0248 3.29519 11.89 3.05662 11.7298L2.94212 11.5639C2.85015 11.1694 3.13612 10.9557 3.57224 10.9557C3.82912 10.9557 4.03449 11.0065 4.16479 11.1157C4.37885 11.2952 4.34221 11.5818 4.11693 11.7308C4.09906 11.7427 4.08093 11.7533 4.06255 11.7628C4.18892 11.8695 4.26605 11.9797 4.28479 12.1185Z" fill="#FFE402"/>
      <path d="M4.29797 11.6346L3.79664 11.8608C3.72627 11.7049 3.70525 11.5632 3.76381 11.4281L4.26842 11.6469C4.28538 11.6078 4.28516 11.6062 4.29797 11.6346Z" fill="#FFE402"/>
      <path d="M2.04504 0.881499C2.01331 0.6465 2.16384 0.479116 2.41635 0.371388C2.75581 0.226566 3.09833 0.362178 3.41339 0.711284L3.00509 1.07978C2.86513 0.924701 2.764 0.864953 2.68593 0.865969C2.83879 0.975178 3.03465 1.11 3.27321 1.27021L3.38772 1.43607C3.47968 1.83057 3.19372 2.04433 2.7576 2.04433C2.50072 2.04433 2.29535 1.9935 2.16505 1.88425C1.95098 1.70476 1.98763 1.41824 2.2129 1.26917C2.23077 1.25735 2.24891 1.24671 2.26729 1.23723C2.14091 1.1305 2.06379 1.02033 2.04504 0.881499Z" fill="#FFE402"/>
      <path d="M4.28479 0.881499C4.31652 0.6465 4.166 0.479116 3.91349 0.371388C3.57403 0.226566 3.23151 0.362178 2.91644 0.711284L3.32474 1.07978C3.4647 0.924701 3.56584 0.864953 3.64391 0.865969C3.49104 0.975178 3.29519 1.11 3.05662 1.27021L2.94212 1.43607C2.85015 1.83057 3.13612 2.04433 3.57224 2.04433C3.82912 2.04433 4.03449 1.9935 4.16479 1.88425C4.37885 1.70476 4.34221 1.41824 4.11693 1.26917C4.09906 1.25735 4.08093 1.24671 4.06255 1.23723C4.18892 1.1305 4.26605 1.02033 4.28479 0.881499Z" fill="#FFE402"/>
      <path fill-rule="evenodd" clip-rule="evenodd" d="M2.54692 10.5315C2.23141 10.5406 2.0351 10.6057 2.0351 10.9098C2.0351 11.2452 2.36092 11.3501 2.70757 11.3501C3.02158 11.3501 3.37533 11.1552 3.37533 10.8062C3.37533 10.5938 3.10536 10.1654 2.42554 9.23651C2.40198 9.21457 2.389 9.20339 2.37861 9.20331C2.41984 9.18036 2.49244 9.15348 2.58824 9.15348C2.6215 9.15348 2.66472 9.1703 2.70757 9.19185V9.55613H3.4273V9.28113C3.4273 8.97044 2.96802 8.60348 2.58824 8.60348C2.25656 8.60348 1.99029 8.76125 1.85542 8.98824C1.72213 9.21256 1.82405 9.42789 2.01547 9.59917C2.30031 9.99202 2.52147 10.3172 2.66018 10.5309C2.60922 10.5304 2.58124 10.5305 2.54692 10.5315ZM2.58072 10.7851C2.57074 10.7829 2.56114 10.7804 2.55217 10.7778C2.55885 10.7848 2.5851 10.8161 2.5851 10.9098C2.5851 10.9608 2.58265 10.9967 2.57935 11.0219C2.48656 10.94 2.46062 10.7973 2.52852 10.6875L2.5302 10.6847L2.51985 10.6642C2.52122 10.6635 2.5226 10.6628 2.52395 10.6621C2.53994 10.6538 2.55308 10.6471 2.5302 10.6847L2.58072 10.7851ZM2.55217 10.7778L2.54264 10.7749C2.54367 10.7753 2.54501 10.7759 2.54658 10.7769L2.55217 10.7778ZM2.82534 10.8062C2.82534 10.7968 2.82214 10.7912 2.81663 10.7882L2.81983 10.7917C2.82348 10.7992 2.82534 10.8041 2.82534 10.8062Z" fill="#FFE402"/>
      <path fill-rule="evenodd" clip-rule="evenodd" d="M3.78279 10.5315C4.0983 10.5406 4.29461 10.6057 4.29461 10.9098C4.29461 11.2452 3.96879 11.3501 3.62214 11.3501C3.30813 11.3501 2.95438 11.1552 2.95438 10.8062C2.95438 10.5938 3.22436 10.1654 3.90417 9.23651C3.92774 9.21457 3.94071 9.20339 3.9511 9.20331C3.90988 9.18036 3.83727 9.15348 3.74147 9.15348C3.70821 9.15348 3.66499 9.1703 3.62214 9.19185V9.55613H2.90241V9.28113C2.90241 8.97044 3.36169 8.60348 3.74147 8.60348C4.07315 8.60348 4.33942 8.76125 4.47429 8.98824C4.60758 9.21256 4.50566 9.42789 4.31424 9.59917C4.0294 9.99202 3.80824 10.3172 3.66954 10.5309C3.7205 10.5304 3.74848 10.5305 3.78279 10.5315ZM3.74899 10.7851C3.75897 10.7829 3.76857 10.7804 3.77754 10.7778C3.77086 10.7848 3.74461 10.8161 3.74461 10.9098C3.74461 10.9608 3.74707 10.9967 3.75036 11.0219C3.84315 10.94 3.86909 10.7973 3.80119 10.6875L3.79951 10.6847L3.80986 10.6642C3.80849 10.6635 3.80712 10.6628 3.80576 10.6621C3.78977 10.6538 3.77664 10.6471 3.79951 10.6847L3.74899 10.7851ZM3.77754 10.7778L3.78708 10.7749C3.78605 10.7753 3.7847 10.7759 3.78313 10.7769L3.77754 10.7778ZM3.50438 10.8062C3.50438 10.7968 3.50757 10.7912 3.51309 10.7882L3.50989 10.7917C3.50623 10.7992 3.50438 10.8041 3.50438 10.8062Z" fill="#FFE402"/>
      <path fill-rule="evenodd" clip-rule="evenodd" d="M2.54692 7.17737C2.23141 7.16828 2.0351 7.1032 2.0351 6.79906C2.0351 6.46369 2.36092 6.35876 2.70757 6.35876C3.02158 6.35876 3.37533 6.55366 3.37533 6.90269C3.37533 7.11502 3.10536 7.5435 2.42554 8.47235C2.40198 8.49429 2.389 8.50548 2.37861 8.50555C2.41984 8.5285 2.49244 8.55539 2.58824 8.55539C2.6215 8.55539 2.66472 8.53856 2.70757 8.51701V8.15273H3.4273V8.42773C3.4273 8.73843 2.96802 9.10539 2.58824 9.10539C2.25656 9.10539 1.99029 8.94761 1.85542 8.72062C1.72213 8.4963 1.82405 8.28097 2.01547 8.10969C2.30031 7.71684 2.52147 7.39166 2.66018 7.178C2.60922 7.17842 2.58124 7.17835 2.54692 7.17737ZM2.58072 6.92377C2.57074 6.92599 2.56114 6.92842 2.55217 6.93102C2.55885 6.92402 2.5851 6.89273 2.5851 6.79906C2.5851 6.74807 2.58265 6.71219 2.57935 6.68697C2.48656 6.76883 2.46062 6.91153 2.52852 7.02138L2.5302 7.02412L2.51985 7.04469C2.52122 7.04538 2.5226 7.04609 2.52395 7.04679C2.53994 7.05502 2.55308 7.06178 2.5302 7.02412L2.58072 6.92377ZM2.55217 6.93102L2.54264 6.93394C2.54367 6.93361 2.54501 6.93297 2.54658 6.93195L2.55217 6.93102ZM2.82534 6.90269C2.82534 6.91208 2.82214 6.91766 2.81663 6.92065L2.81983 6.91714C2.82348 6.90962 2.82534 6.90477 2.82534 6.90269Z" fill="#FFE402"/>
      <path fill-rule="evenodd" clip-rule="evenodd" d="M3.78279 7.17737C4.0983 7.16828 4.29461 7.1032 4.29461 6.79906C4.29461 6.46369 3.96879 6.35876 3.62214 6.35876C3.30813 6.35876 2.95438 6.55366 2.95438 6.90269C2.95438 7.11502 3.22436 7.5435 3.90417 8.47235C3.92774 8.49429 3.94071 8.50548 3.9511 8.50555C3.90988 8.5285 3.83727 8.55539 3.74147 8.55539C3.70821 8.55539 3.66499 8.53856 3.62214 8.51701V8.15273H2.90241V8.42773C2.90241 8.73843 3.36169 9.10539 3.74147 9.10539C4.07315 9.10539 4.33942 8.94761 4.47429 8.72062C4.60758 8.4963 4.50566 8.28097 4.31424 8.10969C4.0294 7.71684 3.80824 7.39166 3.66954 7.178C3.7205 7.17842 3.74848 7.17835 3.78279 7.17737ZM3.74899 6.92377C3.75897 6.92599 3.76857 6.92842 3.77754 6.93102C3.77086 6.92402 3.74461 6.89273 3.74461 6.79906C3.74461 6.74807 3.74707 6.71219 3.75036 6.68697C3.84315 6.76883 3.86909 6.91153 3.80119 7.02138L3.79951 7.02412L3.80986 7.04469C3.80849 7.04538 3.80712 7.04609 3.80576 7.04679C3.78977 7.05502 3.77664 7.06178 3.79951 7.02412L3.74899 6.92377ZM3.77754 6.93102L3.78708 6.93394C3.78605 6.93361 3.7847 6.93297 3.78313 6.93195L3.77754 6.93102ZM3.50438 6.90269C3.50438 6.91208 3.50757 6.91766 3.51309 6.92065L3.50989 6.91714C3.50623 6.90962 3.50438 6.90477 3.50438 6.90269Z" fill="#FFE402"/>
      <path fill-rule="evenodd" clip-rule="evenodd" d="M2.54692 5.82263C2.23141 5.83172 2.0351 5.8968 2.0351 6.20094C2.0351 6.53631 2.36092 6.64124 2.70757 6.64124C3.02158 6.64124 3.37533 6.44634 3.37533 6.09731C3.37533 5.88498 3.10536 5.4565 2.42554 4.52765C2.40198 4.50571 2.389 4.49452 2.37861 4.49445C2.41984 4.4715 2.49244 4.44461 2.58824 4.44461C2.6215 4.44461 2.66472 4.46144 2.70757 4.48299V4.84727H3.4273V4.57227C3.4273 4.26157 2.96802 3.89461 2.58824 3.89461C2.25656 3.89461 1.99029 4.05239 1.85542 4.27938C1.72213 4.5037 1.82405 4.71903 2.01547 4.89031C2.30031 5.28316 2.52147 5.60834 2.66018 5.822C2.60922 5.82158 2.58124 5.82165 2.54692 5.82263ZM2.58072 6.07623C2.57074 6.07401 2.56114 6.07158 2.55217 6.06898C2.55885 6.07598 2.5851 6.10727 2.5851 6.20094C2.5851 6.25193 2.58265 6.28781 2.57935 6.31303C2.48656 6.23117 2.46062 6.08847 2.52852 5.97862L2.5302 5.97588L2.51985 5.95531C2.52122 5.95462 2.5226 5.95391 2.52395 5.95321C2.53994 5.94498 2.55308 5.93822 2.5302 5.97588L2.58072 6.07623ZM2.55217 6.06898L2.54264 6.06606C2.54367 6.06639 2.54501 6.06703 2.54658 6.06805L2.55217 6.06898ZM2.82534 6.09731C2.82534 6.08792 2.82214 6.08234 2.81663 6.07935L2.81983 6.08286C2.82348 6.09038 2.82534 6.09523 2.82534 6.09731Z" fill="#FFE402"/>
      <path fill-rule="evenodd" clip-rule="evenodd" d="M3.78279 5.82263C4.0983 5.83172 4.29461 5.8968 4.29461 6.20094C4.29461 6.53631 3.96879 6.64124 3.62214 6.64124C3.30813 6.64124 2.95438 6.44634 2.95438 6.09731C2.95438 5.88498 3.22436 5.4565 3.90417 4.52765C3.92774 4.50571 3.94071 4.49452 3.9511 4.49445C3.90988 4.4715 3.83727 4.44461 3.74147 4.44461C3.70821 4.44461 3.66499 4.46144 3.62214 4.48299V4.84727H2.90241V4.57227C2.90241 4.26157 3.36169 3.89461 3.74147 3.89461C4.07315 3.89461 4.33942 4.05239 4.47429 4.27938C4.60758 4.5037 4.50566 4.71903 4.31424 4.89031C4.0294 5.28316 3.80824 5.60834 3.66954 5.822C3.7205 5.82158 3.74848 5.82165 3.78279 5.82263ZM3.74899 6.07623C3.75897 6.07401 3.76857 6.07158 3.77754 6.06898C3.77086 6.07598 3.74461 6.10727 3.74461 6.20094C3.74461 6.25193 3.74707 6.28781 3.75036 6.31303C3.84315 6.23117 3.86909 6.08847 3.80119 5.97862L3.79951 5.97588L3.80986 5.95531C3.80849 5.95462 3.80712 5.95391 3.80576 5.95321C3.78977 5.94498 3.77664 5.93822 3.79951 5.97588L3.74899 6.07623ZM3.77754 6.06898L3.78708 6.06606C3.78605 6.06639 3.7847 6.06703 3.78313 6.06805L3.77754 6.06898ZM3.50438 6.09731C3.50438 6.08792 3.50757 6.08234 3.51309 6.07935L3.50989 6.08286C3.50623 6.09038 3.50438 6.09523 3.50438 6.09731Z" fill="#FFE402"/>
      <path fill-rule="evenodd" clip-rule="evenodd" d="M2.54692 2.4685C2.23141 2.45942 2.0351 2.39434 2.0351 2.0902C2.0351 1.75483 2.36092 1.6499 2.70757 1.6499C3.02158 1.6499 3.37533 1.84479 3.37533 2.19382C3.37533 2.40616 3.10536 2.83464 2.42554 3.76349C2.40198 3.78543 2.389 3.79661 2.37861 3.79669C2.41984 3.81964 2.49244 3.84652 2.58824 3.84652C2.6215 3.84652 2.66472 3.8297 2.70757 3.80815V3.44387H3.4273V3.71887C3.4273 4.02956 2.96802 4.39652 2.58824 4.39652C2.25656 4.39652 1.99029 4.23875 1.85542 4.01176C1.72213 3.78744 1.82405 3.57211 2.01547 3.40083C2.30031 3.00798 2.52147 2.68279 2.66018 2.46913C2.60922 2.46956 2.58124 2.46949 2.54692 2.4685ZM2.58072 2.21491C2.57074 2.21713 2.56114 2.21956 2.55217 2.22216C2.55885 2.21516 2.5851 2.18386 2.5851 2.0902C2.5851 2.03921 2.58265 2.00333 2.57935 1.97811C2.48656 2.05997 2.46062 2.20267 2.52852 2.31252L2.5302 2.31526L2.51985 2.33583C2.52122 2.33652 2.5226 2.33723 2.52395 2.33792C2.53994 2.34616 2.55308 2.35292 2.5302 2.31526L2.58072 2.21491ZM2.55217 2.22216L2.54264 2.22508C2.54367 2.22474 2.54501 2.22411 2.54658 2.22309L2.55217 2.22216ZM2.82534 2.19382C2.82534 2.20321 2.82214 2.2088 2.81663 2.21179L2.81983 2.20828C2.82348 2.20076 2.82534 2.1959 2.82534 2.19382Z" fill="#FFE402"/>
      <path fill-rule="evenodd" clip-rule="evenodd" d="M3.78279 2.4685C4.0983 2.45942 4.29461 2.39434 4.29461 2.0902C4.29461 1.75483 3.96879 1.6499 3.62214 1.6499C3.30813 1.6499 2.95438 1.84479 2.95438 2.19382C2.95438 2.40616 3.22436 2.83464 3.90417 3.76349C3.92774 3.78543 3.94071 3.79661 3.9511 3.79669C3.90988 3.81964 3.83727 3.84652 3.74147 3.84652C3.70821 3.84652 3.66499 3.8297 3.62214 3.80815V3.44387H2.90241V3.71887C2.90241 4.02956 3.36169 4.39652 3.74147 4.39652C4.07315 4.39652 4.33942 4.23875 4.47429 4.01176C4.60758 3.78744 4.50566 3.57211 4.31424 3.40083C4.0294 3.00798 3.80824 2.68279 3.66954 2.46913C3.7205 2.46956 3.74848 2.46949 3.78279 2.4685ZM3.74899 2.21491C3.75897 2.21713 3.76857 2.21956 3.77754 2.22216C3.77086 2.21516 3.74461 2.18386 3.74461 2.0902C3.74461 2.03921 3.74707 2.00333 3.75036 1.97811C3.84315 2.05997 3.86909 2.20267 3.80119 2.31252L3.79951 2.31526L3.80986 2.33583C3.80849 2.33652 3.80712 2.33723 3.80576 2.33792C3.78977 2.34616 3.77664 2.35292 3.79951 2.31526L3.74899 2.21491ZM3.77754 2.22216L3.78708 2.22508C3.78605 2.22474 3.7847 2.22411 3.78313 2.22309L3.77754 2.22216ZM3.50438 2.19382C3.50438 2.20321 3.50757 2.2088 3.51309 2.21179L3.50989 2.20828C3.50623 2.20076 3.50438 2.1959 3.50438 2.19382Z" fill="#FFE402"/>
      <path fill-rule="evenodd" clip-rule="evenodd" d="M9.49342 1.89233L9.69814 2.65619C9.69814 2.65619 9.70055 2.82973 9.5045 2.82973C9.30844 2.82973 9.29855 2.65619 9.29855 2.65619L9.49342 1.89233ZM11.2252 4.80992C11.2252 5.80404 10.4664 6.60992 9.53023 6.60992C8.59411 6.60992 7.83523 5.80404 7.83523 4.80992C7.83523 3.81581 8.59411 3.00992 9.53023 3.00992C10.4664 3.00992 11.2252 3.81581 11.2252 4.80992ZM10.2907 2.81022L10.3182 2.01989L9.90855 2.6934C9.90855 2.6934 9.86726 2.86225 10.0548 2.91957C10.2422 2.97689 10.2907 2.81022 10.2907 2.81022ZM11.0704 2.39414L10.813 3.14189C10.813 3.14189 10.7179 3.28711 10.5554 3.17748C10.3928 3.06784 10.4817 2.91844 10.4817 2.91844L11.0704 2.39414ZM11.2184 3.62174L11.6832 2.98193L10.967 3.3112C10.967 3.3112 10.8383 3.4281 10.9617 3.58046C11.0851 3.73282 11.2184 3.62174 11.2184 3.62174ZM12.1056 3.73873L11.4658 4.2036C11.4658 4.2036 11.3046 4.26804 11.2344 4.085C11.1641 3.90197 11.3226 3.83055 11.3226 3.83055L12.1056 3.73873ZM11.544 4.84107L12.2917 4.58356L11.5161 4.44245C11.5161 4.44245 11.3437 4.46442 11.3573 4.66C11.371 4.85557 11.544 4.84107 11.544 4.84107ZM12.2303 5.44789L11.44 5.47554C11.44 5.47554 11.2703 5.43885 11.3145 5.24782C11.3586 5.05679 11.5299 5.08619 11.5299 5.08619L12.2303 5.44789ZM11.163 6.05051L11.9269 6.25514L11.3628 5.70446C11.3628 5.70446 11.2075 5.62625 11.1095 5.79603C11.0115 5.96582 11.163 6.05051 11.163 6.05051ZM11.4082 6.93376L10.7376 6.51473C10.7376 6.51473 10.6174 6.38945 10.7608 6.25574C10.9042 6.12204 11.0298 6.24221 11.0298 6.24221L11.4082 6.93376ZM10.2015 6.82681L10.7204 7.42361L10.5607 6.65164C10.5607 6.65164 10.4757 6.5 10.2995 6.58594C10.1233 6.67189 10.2015 6.82681 10.2015 6.82681ZM9.92423 7.68129L9.60253 6.95887C9.60253 6.95887 9.57301 6.78784 9.76665 6.75717C9.96029 6.7265 9.9972 6.89636 9.9972 6.89636L9.92423 7.68129ZM8.99955 6.89636L9.08227 7.68284L9.39422 6.95887C9.39422 6.95887 9.41161 6.78592 9.21797 6.75525C9.02432 6.72458 8.99955 6.89636 8.99955 6.89636ZM8.28525 7.42795L8.4361 6.65165C8.4361 6.65165 8.51001 6.49462 8.68622 6.58056C8.86243 6.66651 8.79524 6.82682 8.79524 6.82682L8.28525 7.42795ZM7.96695 6.24223L7.59573 6.94051L8.25919 6.51475C8.25919 6.51475 8.37032 6.38109 8.22693 6.24738C8.08355 6.11367 7.96695 6.24223 7.96695 6.24223ZM7.07481 6.26371L7.63396 5.70448C7.63396 5.70448 7.78305 5.61562 7.88108 5.78541C7.97911 5.9552 7.83376 6.05053 7.83376 6.05053L7.07481 6.26371ZM7.46686 5.08622L6.76864 5.45753L7.55675 5.47557C7.55675 5.47557 7.72362 5.4269 7.67952 5.23587C7.63541 5.04484 7.46686 5.08622 7.46686 5.08622ZM6.70435 4.59342L7.48062 4.44248C7.48062 4.44248 7.65391 4.45218 7.64023 4.64776C7.62656 4.84334 7.45275 4.84109 7.45275 4.84109L6.70435 4.59342ZM7.67412 3.83057L6.88763 3.74796L7.53092 4.20362C7.53092 4.20362 7.69648 4.25658 7.76674 4.07355C7.837 3.89052 7.67412 3.83057 7.67412 3.83057ZM7.30727 2.98961L8.02974 3.31122C8.02974 3.31122 8.16612 3.41857 8.04274 3.57093C7.91936 3.72329 7.77827 3.62176 7.77827 3.62176L7.30727 2.98961ZM8.51502 2.91846L7.91815 2.39967L8.18374 3.14191C8.18374 3.14191 8.28898 3.28025 8.45152 3.17062C8.61406 3.06099 8.51502 2.91846 8.51502 2.91846ZM8.66904 2.02278L9.08815 2.6934C9.08815 2.6934 9.14119 2.85866 8.95371 2.91598C8.76622 2.9733 8.70602 2.81023 8.70602 2.81023L8.66904 2.02278Z" fill="#FFE402"/>
      <path d="M5.77388 4.49997L6.49547 4.57295C6.14918 6.91998 7.0831 7.97742 9.51368 7.97742C11.974 7.97742 13.1134 6.87201 13.1134 4.49997C13.1134 4.49997 13.6256 4.47092 13.6215 4.57295C13.511 7.30209 12.3396 9.05393 9.44203 9.05393C6.40633 9.05393 5.3377 7.45621 5.77388 4.49997Z" fill="#FFE402"/>
      <path d="M5.98927 5.89987L6.67077 5.97285C6.34372 8.31988 7.22577 9.37732 9.52134 9.37732C11.845 9.37732 12.9211 8.27192 12.9211 5.89987C12.9211 5.89987 13.4049 5.87082 13.401 5.97285C13.2966 8.702 12.1903 10.4538 9.45367 10.4538C6.58659 10.4538 5.57732 8.85611 5.98927 5.89987Z" fill="#FFE402"/>
    </g>
  </g>
</svg>
