<svg width="16" height="13" viewBox="0 0 16 13" fill="none" xmlns="http://www.w3.org/2000/svg">
  <mask id="mask0_2092_954" style="mask-type:luminance" maskUnits="userSpaceOnUse" x="0" y="0" width="16" height="13">
    <rect y="0.5" width="16" height="12" fill="white"/>
  </mask>
  <g mask="url(#mask0_2092_954)">
    <path fill-rule="evenodd" clip-rule="evenodd" d="M0 0.5V12.5H16V0.5H0Z" fill="#4857A1"/>
    <mask id="mask1_2092_954" style="mask-type:luminance" maskUnits="userSpaceOnUse" x="0" y="0" width="16" height="13">
      <path fill-rule="evenodd" clip-rule="evenodd" d="M0 0.5V12.5H16V0.5H0Z" fill="white"/>
    </mask>
    <g mask="url(#mask1_2092_954)">
      <path fill-rule="evenodd" clip-rule="evenodd" d="M0 0.5V4.5H16V0.5H0Z" fill="#C51918"/>
      <path fill-rule="evenodd" clip-rule="evenodd" d="M0 8.5V12.5H16V8.5H0Z" fill="#F7FCFF"/>
      <path fill-rule="evenodd" clip-rule="evenodd" d="M5.26009 1.84781L5.19543 1.60364C5.24847 1.61899 5.3059 1.63472 5.36645 1.65089L5.36459 1.64166C6.11873 1.71146 7.28648 2.08785 7.50624 2.48051C7.59118 2.63227 7.50878 2.76057 7.4008 2.9287L7.40076 2.92876C7.38463 2.95386 7.36794 2.97985 7.35115 3.00695C7.29689 3.09448 7.24773 3.17818 7.2014 3.25706L7.20138 3.2571L7.20136 3.25713C7.03227 3.54503 6.90087 3.76876 6.6969 3.88061L6.70087 4.52025L3.332 4.49295L3.32769 3.84873C3.15278 3.72905 3.02999 3.51999 2.8759 3.25764L2.8759 3.25764L2.8759 3.25763L2.8759 3.25762C2.82956 3.17873 2.78039 3.09501 2.72612 3.00746C2.70931 2.98034 2.69261 2.95433 2.67647 2.92921C2.56848 2.76108 2.48608 2.63278 2.57103 2.48102C2.73695 2.18455 3.48335 1.89218 4.16368 1.73668C4.29198 1.69407 4.42553 1.65411 4.55798 1.61578L4.61258 1.65302C4.67152 1.64481 4.7285 1.63812 4.78296 1.63308L4.86324 1.80417H5.12699C5.12699 1.80417 5.29262 2.26754 5.29262 2.52487C5.29262 2.78221 5.12699 2.99501 5.12699 2.99501V3.17268C5.15583 3.17495 5.18609 3.17771 5.21754 3.18091C5.21755 3.16523 5.21897 3.1487 5.22195 3.13179C5.23692 3.0469 5.28557 2.98453 5.33061 2.99247C5.37566 3.00041 5.40004 3.07567 5.38507 3.16055C5.38268 3.17409 5.37944 3.18705 5.37549 3.19924C5.55307 3.22201 5.75201 3.25378 5.94045 3.28645C6.0123 3.15523 6.09989 3.02558 6.18353 2.90179C6.3997 2.58184 6.58942 2.30103 6.41236 2.13341C6.37865 2.10149 6.31753 2.07181 6.23869 2.04433C5.97797 1.98111 5.69385 1.93176 5.41796 1.90623L5.41073 1.87037C5.35801 1.86231 5.30738 1.85479 5.26009 1.84781ZM6.54172 3.39861C6.63662 3.41745 6.6941 3.42942 6.6941 3.42942L6.69472 3.52793C7.02868 3.28915 7.26255 2.74936 7.2826 2.57265C7.29451 2.46769 7.11914 2.34552 6.84375 2.23363C6.96958 2.46823 6.79335 2.7016 6.57268 2.9938C6.48901 3.10461 6.39894 3.22388 6.31653 3.35488L6.39949 3.37076C6.39825 3.346 6.40119 3.31811 6.40885 3.28949C6.43116 3.20623 6.48506 3.14833 6.52924 3.16017C6.57342 3.17201 6.59115 3.2491 6.56884 3.33236C6.56222 3.35706 6.55282 3.37953 6.54172 3.39861ZM4.81896 3.17386V2.97602C4.81896 2.97602 4.67556 2.82499 4.65333 2.51045C4.63715 2.28154 4.68838 2.01175 4.71747 1.88181C4.5172 1.90733 4.30681 1.94527 4.10167 1.99136C3.93639 2.03251 3.80252 2.0798 3.74591 2.13339C3.56885 2.30102 3.75857 2.58182 3.97474 2.90178L3.97474 2.90178C4.05553 3.02136 4.14001 3.1464 4.21042 3.27305C4.33205 3.24823 4.45428 3.22526 4.5684 3.20697C4.56362 3.19043 4.56022 3.17238 4.55856 3.15338C4.55104 3.06751 4.58189 2.99466 4.62745 2.99068C4.67302 2.98669 4.71604 3.05307 4.72356 3.13894C4.72493 3.15467 4.72502 3.16996 4.72397 3.18448C4.75694 3.18031 4.78869 3.17674 4.81896 3.17386ZM3.84097 3.35365C3.75877 3.22312 3.669 3.10425 3.58558 2.99379L3.58558 2.99379C3.35973 2.69472 3.18043 2.45729 3.32388 2.21709C3.00033 2.33815 2.78276 2.46829 2.79466 2.57316C2.81355 2.73958 3.02208 3.22803 3.32525 3.4838L3.32523 3.48016C3.32523 3.48016 3.44926 3.44736 3.63258 3.40294C3.62047 3.38445 3.60989 3.36247 3.60197 3.3381C3.57534 3.25612 3.58901 3.17821 3.6325 3.16408C3.676 3.14994 3.73286 3.20494 3.7595 3.28692C3.76888 3.3158 3.77326 3.34417 3.7731 3.36943L3.84097 3.35365Z" fill="#F6C540"/>
      <path fill-rule="evenodd" clip-rule="evenodd" d="M4.2967 1.84181C4.31983 1.85775 4.34836 1.86716 4.37922 1.86716C4.45651 1.86716 4.51918 1.80812 4.51918 1.73528C4.51918 1.66244 4.45651 1.60339 4.37922 1.60339C4.32433 1.60339 4.27683 1.63316 4.25389 1.6765C4.23075 1.66056 4.20223 1.65115 4.17137 1.65115C4.12214 1.65115 4.07884 1.6751 4.05389 1.71132C4.02974 1.69264 3.99884 1.68143 3.96515 1.68143C3.88786 1.68143 3.8252 1.74047 3.8252 1.81331C3.8252 1.81753 3.82541 1.82169 3.82582 1.82581C3.80017 1.79553 3.76067 1.77613 3.71637 1.77613C3.64631 1.77613 3.58828 1.82464 3.57802 1.88796C3.5524 1.85724 3.51261 1.83751 3.46792 1.83751C3.40076 1.83751 3.34464 1.88209 3.33109 1.94157C3.3081 1.92598 3.2799 1.9168 3.24942 1.9168C3.1874 1.9168 3.1348 1.95482 3.11643 2.00747C3.0976 1.99858 3.07634 1.99358 3.05385 1.99358C2.98479 1.99358 2.92741 2.04071 2.91596 2.1027C2.90699 2.101 2.89771 2.10011 2.88821 2.10011C2.81168 2.10011 2.74949 2.158 2.74827 2.22984C2.74007 2.22843 2.73161 2.22769 2.72297 2.22769C2.64567 2.22769 2.58301 2.28674 2.58301 2.35958C2.58301 2.36884 2.58402 2.37788 2.58595 2.38661C2.57659 2.38475 2.56689 2.38377 2.55695 2.38377C2.47965 2.38377 2.41699 2.44282 2.41699 2.51566C2.41699 2.571 2.45316 2.61838 2.50444 2.63795C2.50142 2.64873 2.49981 2.66005 2.49981 2.67173C2.49981 2.7272 2.53614 2.77466 2.58761 2.79415C2.58461 2.8049 2.58301 2.81618 2.58301 2.82781C2.58301 2.89867 2.64232 2.95648 2.71672 2.95956C2.68518 2.98374 2.66504 3.02061 2.66504 3.06191C2.66504 3.13474 2.7277 3.19379 2.805 3.19379C2.88229 3.19379 2.94496 3.13474 2.94496 3.06191C2.94496 2.99104 2.88564 2.93323 2.81125 2.93015C2.84278 2.90597 2.86292 2.86911 2.86292 2.82781C2.86292 2.77234 2.82659 2.72487 2.77513 2.70539C2.77813 2.69464 2.77973 2.68336 2.77973 2.67173C2.77973 2.61639 2.74355 2.56901 2.69227 2.54944C2.6953 2.53866 2.69691 2.52734 2.69691 2.51566C2.69691 2.50639 2.6959 2.49735 2.69397 2.48863C2.70332 2.49048 2.71302 2.49146 2.72297 2.49146C2.7995 2.49146 2.86169 2.43357 2.86291 2.36173C2.87111 2.36314 2.87957 2.36388 2.88821 2.36388C2.95727 2.36388 3.01465 2.31675 3.0261 2.25476C3.03506 2.25646 3.04434 2.25735 3.05385 2.25735C3.11587 2.25735 3.16847 2.21934 3.18683 2.16668C3.20567 2.17557 3.22692 2.18057 3.24942 2.18057C3.28013 2.18057 3.30852 2.17125 3.3316 2.15545C3.33595 2.17309 3.34406 2.18937 3.35509 2.20351C3.33804 2.22536 3.32797 2.25234 3.32797 2.28154C3.32797 2.35275 3.38785 2.41078 3.46276 2.41334C3.43125 2.43752 3.41113 2.47437 3.41113 2.51564C3.41113 2.57073 3.44697 2.61793 3.49788 2.63766C3.4948 2.64853 3.49316 2.65996 3.49316 2.67174C3.49316 2.72722 3.52952 2.7747 3.581 2.79418C3.57801 2.80491 3.57641 2.81619 3.57641 2.82781C3.57641 2.90065 3.63907 2.95969 3.71637 2.95969C3.79367 2.95969 3.85633 2.90065 3.85633 2.82781C3.85633 2.77233 3.81998 2.72485 3.76849 2.70537C3.77149 2.69463 3.77308 2.68336 3.77308 2.67174C3.77308 2.61665 3.73724 2.56945 3.68633 2.54972C3.68941 2.53885 3.69105 2.52743 3.69105 2.51564C3.69105 2.44443 3.63116 2.38641 3.55626 2.38385C3.58776 2.35966 3.60788 2.32282 3.60788 2.28154C3.60788 2.25234 3.59781 2.22536 3.58076 2.20351C3.59781 2.18165 3.60788 2.15467 3.60788 2.12547C3.60788 2.09627 3.59781 2.06928 3.58076 2.04743C3.59383 2.03068 3.6028 2.01092 3.60627 1.98945C3.6319 2.02017 3.67169 2.0399 3.71637 2.0399C3.79367 2.0399 3.85633 1.98086 3.85633 1.90802C3.85633 1.9038 3.85612 1.89964 3.85571 1.89552C3.88135 1.9258 3.92085 1.9452 3.96515 1.9452C4.01439 1.9452 4.05768 1.92124 4.08263 1.88503C4.10678 1.9037 4.13769 1.91492 4.17137 1.91492C4.22625 1.91492 4.27376 1.88515 4.2967 1.84181ZM3.46792 2.10128C3.51423 2.10128 3.55529 2.08008 3.58076 2.04743C3.55529 2.01478 3.51423 1.99358 3.46792 1.99358C3.4821 1.99358 3.4936 1.98275 3.4936 1.96939C3.4936 1.95603 3.4821 1.9452 3.46792 1.9452C3.45375 1.9452 3.44225 1.95603 3.44225 1.96939C3.44225 1.98275 3.45375 1.99358 3.46792 1.99358C3.43722 1.99358 3.40882 2.0029 3.38574 2.0187C3.37795 1.98713 3.35813 1.95991 3.33109 1.94157C3.32904 1.95054 3.32797 1.95985 3.32797 1.96939C3.32797 1.99859 3.33804 2.02558 3.35509 2.04743C3.33804 2.06928 3.32797 2.09627 3.32797 2.12547C3.32797 2.13578 3.32922 2.14582 3.3316 2.15545C3.359 2.13669 3.3789 2.10879 3.38626 2.07651C3.40924 2.09209 3.43744 2.10128 3.46792 2.10128ZM3.46792 2.14966C3.42162 2.14966 3.38056 2.17085 3.35509 2.20351C3.38056 2.23616 3.42162 2.25735 3.46792 2.25735C3.51423 2.25735 3.55529 2.23616 3.58076 2.20351C3.55529 2.17085 3.51423 2.14966 3.46792 2.14966ZM3.46792 2.14966C3.4821 2.14966 3.4936 2.13883 3.4936 2.12547C3.4936 2.11211 3.4821 2.10128 3.46792 2.10128C3.45375 2.10128 3.44225 2.11211 3.44225 2.12547C3.44225 2.13883 3.45375 2.14966 3.46792 2.14966ZM3.38626 2.07651C3.37432 2.06841 3.36379 2.05859 3.35509 2.04743C3.36367 2.03643 3.37402 2.02673 3.38574 2.0187C3.38812 2.02833 3.38938 2.03837 3.38938 2.04869C3.38938 2.05823 3.3883 2.06754 3.38626 2.07651ZM3.76849 2.70537C3.75238 2.69928 3.73479 2.69592 3.71637 2.69592C3.65141 2.69592 3.59678 2.73763 3.581 2.79418C3.59711 2.80027 3.6147 2.80362 3.63312 2.80362C3.69808 2.80362 3.75271 2.76192 3.76849 2.70537ZM3.68633 2.54972C3.66993 2.54336 3.65196 2.53986 3.63312 2.53986C3.56833 2.53986 3.51382 2.58134 3.49788 2.63766C3.51429 2.64402 3.53225 2.64753 3.55109 2.64753C3.61588 2.64753 3.67039 2.60604 3.68633 2.54972ZM3.55626 2.38385L3.55109 2.38376C3.5176 2.38376 3.48685 2.39485 3.46276 2.41334L3.46792 2.41343C3.50142 2.41343 3.53217 2.40234 3.55626 2.38385ZM2.81125 2.93015L2.805 2.93002C2.77153 2.93002 2.7408 2.94109 2.71672 2.95956L2.72297 2.95969C2.75644 2.95969 2.78716 2.94862 2.81125 2.93015ZM2.77513 2.70539C2.75934 2.76192 2.70472 2.80362 2.63977 2.80362C2.62133 2.80362 2.60373 2.80026 2.58761 2.79415C2.60339 2.73762 2.65801 2.69592 2.72297 2.69592C2.7414 2.69592 2.75901 2.69928 2.77513 2.70539ZM2.69227 2.54944C2.67644 2.60591 2.62185 2.64754 2.55695 2.64754C2.53838 2.64754 2.52066 2.64413 2.50444 2.63795C2.52028 2.58148 2.57486 2.53985 2.63977 2.53985C2.65834 2.53985 2.67606 2.54326 2.69227 2.54944ZM2.58595 2.38661C2.59723 2.43766 2.63984 2.47788 2.69397 2.48863C2.68268 2.43758 2.64008 2.39735 2.58595 2.38661ZM2.86291 2.36173C2.79769 2.3505 2.74826 2.29669 2.74826 2.23199L2.74827 2.22984C2.81349 2.24107 2.86292 2.29488 2.86292 2.35958L2.86291 2.36173ZM3.0261 2.25476C2.96209 2.24263 2.91389 2.18935 2.91389 2.12547C2.91389 2.1177 2.9146 2.1101 2.91596 2.1027C2.97997 2.11483 3.02817 2.16811 3.02817 2.23199C3.02817 2.23976 3.02746 2.24736 3.0261 2.25476ZM3.18683 2.16668C3.14096 2.14503 3.10946 2.10033 3.10946 2.04869C3.10946 2.03429 3.11191 2.02044 3.11643 2.00747C3.16231 2.02912 3.1938 2.07383 3.1938 2.12547C3.1938 2.13986 3.19136 2.15372 3.18683 2.16668ZM3.60627 1.98945C3.58757 1.96703 3.57641 1.93875 3.57641 1.90802C3.57641 1.9012 3.57696 1.8945 3.57802 1.88796C3.59673 1.91038 3.60788 1.93866 3.60788 1.96939C3.60788 1.97621 3.60733 1.98291 3.60627 1.98945ZM3.82582 1.82581C3.82843 1.85204 3.8392 1.87603 3.85571 1.89552C3.85309 1.86929 3.84232 1.8453 3.82582 1.82581ZM4.08263 1.88503C4.05136 1.86084 4.03141 1.82413 4.03141 1.78303C4.03141 1.75659 4.03967 1.73196 4.05389 1.71132C4.08516 1.73551 4.10511 1.77221 4.10511 1.81331C4.10511 1.83976 4.09685 1.86438 4.08263 1.88503ZM4.2967 1.84181C4.26188 1.81782 4.23926 1.77904 4.23926 1.73528C4.23926 1.71416 4.24453 1.6942 4.25389 1.6765C4.28871 1.70049 4.31133 1.73927 4.31133 1.78303C4.31133 1.80415 4.30606 1.82411 4.2967 1.84181ZM2.88821 2.25619C2.90239 2.25619 2.91389 2.24536 2.91389 2.23199C2.91389 2.21863 2.90239 2.2078 2.88821 2.2078C2.87403 2.2078 2.86254 2.21863 2.86254 2.23199C2.86254 2.24536 2.87403 2.25619 2.88821 2.25619ZM2.72294 2.38377C2.73712 2.38377 2.74861 2.37294 2.74861 2.35958C2.74861 2.34622 2.73712 2.33539 2.72294 2.33539C2.70876 2.33539 2.69727 2.34622 2.69727 2.35958C2.69727 2.37294 2.70876 2.38377 2.72294 2.38377ZM2.55695 2.53985C2.57113 2.53985 2.58262 2.52902 2.58262 2.51566C2.58262 2.5023 2.57113 2.49146 2.55695 2.49146C2.54277 2.49146 2.53128 2.5023 2.53128 2.51566C2.53128 2.52902 2.54277 2.53985 2.55695 2.53985ZM2.63977 2.69592C2.65395 2.69592 2.66544 2.68509 2.66544 2.67173C2.66544 2.65837 2.65395 2.64754 2.63977 2.64754C2.62559 2.64754 2.61409 2.65837 2.61409 2.67173C2.61409 2.68509 2.62559 2.69592 2.63977 2.69592ZM2.72294 2.852C2.73712 2.852 2.74861 2.84117 2.74861 2.82781C2.74861 2.81445 2.73712 2.80362 2.72294 2.80362C2.70876 2.80362 2.69727 2.81445 2.69727 2.82781C2.69727 2.84117 2.70876 2.852 2.72294 2.852ZM2.83064 3.06191C2.83064 3.07527 2.81915 3.0861 2.80497 3.0861C2.79079 3.0861 2.7793 3.07527 2.7793 3.06191C2.7793 3.04855 2.79079 3.03772 2.80497 3.03772C2.81915 3.03772 2.83064 3.04855 2.83064 3.06191ZM3.05385 2.14966C3.06802 2.14966 3.07952 2.13883 3.07952 2.12547C3.07952 2.11211 3.06802 2.10128 3.05385 2.10128C3.03967 2.10128 3.02817 2.11211 3.02817 2.12547C3.02817 2.13883 3.03967 2.14966 3.05385 2.14966ZM3.24942 2.07288C3.2636 2.07288 3.27509 2.06205 3.27509 2.04869C3.27509 2.03533 3.2636 2.0245 3.24942 2.0245C3.23524 2.0245 3.22375 2.03533 3.22375 2.04869C3.22375 2.06205 3.23524 2.07288 3.24942 2.07288ZM3.7161 1.9322C3.73028 1.9322 3.74178 1.92137 3.74178 1.90801C3.74178 1.89465 3.73028 1.88382 3.7161 1.88382C3.70192 1.88382 3.69043 1.89465 3.69043 1.90801C3.69043 1.92137 3.70192 1.9322 3.7161 1.9322ZM3.96513 1.83751C3.9793 1.83751 3.9908 1.82668 3.9908 1.81332C3.9908 1.79995 3.9793 1.78912 3.96513 1.78912C3.95095 1.78912 3.93945 1.79995 3.93945 1.81332C3.93945 1.82668 3.95095 1.83751 3.96513 1.83751ZM4.17137 1.80722C4.18555 1.80722 4.19704 1.79639 4.19704 1.78303C4.19704 1.76967 4.18555 1.75884 4.17137 1.75884C4.15719 1.75884 4.1457 1.76967 4.1457 1.78303C4.1457 1.79639 4.15719 1.80722 4.17137 1.80722ZM4.37919 1.75947C4.39337 1.75947 4.40486 1.74864 4.40486 1.73528C4.40486 1.72192 4.39337 1.71109 4.37919 1.71109C4.36501 1.71109 4.35352 1.72192 4.35352 1.73528C4.35352 1.74864 4.36501 1.75947 4.37919 1.75947ZM3.46792 2.30573C3.4821 2.30573 3.4936 2.2949 3.4936 2.28154C3.4936 2.26818 3.4821 2.25735 3.46792 2.25735C3.45375 2.25735 3.44225 2.26818 3.44225 2.28154C3.44225 2.2949 3.45375 2.30573 3.46792 2.30573ZM3.55106 2.53984C3.56524 2.53984 3.57674 2.52901 3.57674 2.51565C3.57674 2.50229 3.56524 2.49146 3.55106 2.49146C3.53688 2.49146 3.52539 2.50229 3.52539 2.51565C3.52539 2.52901 3.53688 2.53984 3.55106 2.53984ZM3.63309 2.69594C3.64727 2.69594 3.65877 2.6851 3.65877 2.67174C3.65877 2.65838 3.64727 2.64755 3.63309 2.64755C3.61892 2.64755 3.60742 2.65838 3.60742 2.67174C3.60742 2.6851 3.61892 2.69594 3.63309 2.69594ZM3.7161 2.852C3.73028 2.852 3.74178 2.84117 3.74178 2.82781C3.74178 2.81445 3.73028 2.80362 3.7161 2.80362C3.70192 2.80362 3.69043 2.81445 3.69043 2.82781C3.69043 2.84117 3.70192 2.852 3.7161 2.852ZM7.36063 3.0861C7.37481 3.0861 7.38631 3.07527 7.38631 3.06191C7.38631 3.04855 7.37481 3.03772 7.36063 3.03772C7.34646 3.03772 7.33496 3.04855 7.33496 3.06191C7.33496 3.07527 7.34646 3.0861 7.36063 3.0861ZM7.2207 3.06191C7.2207 3.13474 7.28336 3.19379 7.36066 3.19379C7.43796 3.19379 7.50062 3.13474 7.50062 3.06191C7.50062 3.02061 7.48048 2.98374 7.44894 2.95956C7.52334 2.95648 7.58265 2.89867 7.58265 2.82781C7.58265 2.81618 7.58105 2.8049 7.57805 2.79415C7.62952 2.77467 7.66585 2.7272 7.66585 2.67173C7.66585 2.66005 7.66424 2.64873 7.66122 2.63795C7.7125 2.61838 7.74867 2.571 7.74867 2.51566C7.74867 2.44282 7.68601 2.38377 7.60871 2.38377C7.59877 2.38377 7.58907 2.38475 7.57971 2.38661C7.58164 2.37788 7.58265 2.36884 7.58265 2.35958C7.58265 2.28674 7.51999 2.22769 7.44269 2.22769C7.43405 2.22769 7.4256 2.22843 7.41739 2.22984C7.41617 2.158 7.35398 2.10011 7.27745 2.10011C7.26795 2.10011 7.25867 2.101 7.2497 2.1027C7.23825 2.04071 7.18087 1.99358 7.11182 1.99358C7.08932 1.99358 7.06806 1.99858 7.04923 2.00747C7.03086 1.95482 6.97826 1.9168 6.91624 1.9168C6.88576 1.9168 6.85756 1.92598 6.83458 1.94157C6.82102 1.88209 6.76491 1.83751 6.69774 1.83751C6.65306 1.83751 6.61326 1.85724 6.58764 1.88796C6.57738 1.82464 6.51935 1.77613 6.44929 1.77613C6.40499 1.77613 6.36549 1.79553 6.33984 1.82581C6.34025 1.82169 6.34046 1.81753 6.34046 1.81331C6.34046 1.74047 6.2778 1.68143 6.20051 1.68143C6.16682 1.68143 6.13592 1.69264 6.11177 1.71132C6.08682 1.6751 6.04352 1.65115 5.99429 1.65115C5.96343 1.65115 5.93491 1.66056 5.91177 1.6765C5.88883 1.63316 5.84133 1.60339 5.78644 1.60339C5.70915 1.60339 5.64648 1.66244 5.64648 1.73528C5.64648 1.80812 5.70915 1.86716 5.78644 1.86716C5.8173 1.86716 5.84583 1.85775 5.86897 1.84181C5.8919 1.88515 5.93941 1.91492 5.99429 1.91492C6.02797 1.91492 6.05888 1.90371 6.08303 1.88503C6.10798 1.92124 6.15127 1.9452 6.20051 1.9452C6.24481 1.9452 6.28431 1.9258 6.30995 1.89552C6.30954 1.89963 6.30933 1.9038 6.30933 1.90802C6.30933 1.98086 6.37199 2.0399 6.44929 2.0399C6.49397 2.0399 6.53376 2.02017 6.55939 1.98945C6.56286 2.01092 6.57183 2.03068 6.5849 2.04743C6.56785 2.06928 6.55778 2.09627 6.55778 2.12547C6.55778 2.15467 6.56785 2.18165 6.5849 2.20351C6.56785 2.22536 6.55778 2.25234 6.55778 2.28154C6.55778 2.32282 6.5779 2.35966 6.6094 2.38385C6.5345 2.38641 6.47461 2.44443 6.47461 2.51564C6.47461 2.52743 6.47625 2.53885 6.47933 2.54972C6.42842 2.56945 6.39258 2.61665 6.39258 2.67174C6.39258 2.68336 6.39417 2.69464 6.39717 2.70537C6.34569 2.72485 6.30933 2.77233 6.30933 2.82781C6.30933 2.90065 6.37199 2.95969 6.44929 2.95969C6.52659 2.95969 6.58925 2.90065 6.58925 2.82781C6.58925 2.81618 6.58765 2.80491 6.58466 2.79418C6.63614 2.7747 6.6725 2.72722 6.6725 2.67174C6.6725 2.65996 6.67086 2.64853 6.66778 2.63766C6.71869 2.61793 6.75453 2.57073 6.75453 2.51564C6.75453 2.47437 6.73441 2.43752 6.7029 2.41334C6.77781 2.41078 6.8377 2.35275 6.8377 2.28154C6.8377 2.25234 6.82762 2.22536 6.81058 2.20351C6.8216 2.18937 6.82971 2.17309 6.83406 2.15545C6.85714 2.17125 6.88554 2.18057 6.91624 2.18057C6.93874 2.18057 6.96 2.17557 6.97883 2.16668C6.99719 2.21934 7.04979 2.25735 7.11182 2.25735C7.12132 2.25735 7.1306 2.25646 7.13957 2.25476C7.15101 2.31675 7.20839 2.36388 7.27745 2.36388C7.28609 2.36388 7.29455 2.36314 7.30275 2.36173C7.30397 2.43357 7.36616 2.49146 7.44269 2.49146C7.45264 2.49146 7.46234 2.49048 7.47169 2.48862C7.46977 2.49735 7.46875 2.50639 7.46875 2.51566C7.46875 2.52734 7.47036 2.53866 7.47339 2.54944C7.42211 2.56901 7.38594 2.61639 7.38594 2.67173C7.38594 2.68336 7.38753 2.69464 7.39053 2.70539C7.33907 2.72487 7.30273 2.77234 7.30273 2.82781C7.30273 2.86911 7.32288 2.90597 7.35441 2.93015C7.28002 2.93323 7.2207 2.99104 7.2207 3.06191ZM6.7794 2.07651C6.75642 2.09209 6.72822 2.10128 6.69774 2.10128C6.65143 2.10128 6.61037 2.08008 6.5849 2.04743C6.61037 2.01478 6.65143 1.99358 6.69774 1.99358C6.72844 1.99358 6.75684 2.0029 6.77992 2.0187C6.77754 2.02833 6.77628 2.03837 6.77628 2.04869C6.77628 2.05823 6.77736 2.06754 6.7794 2.07651ZM6.81058 2.04743C6.82762 2.06928 6.8377 2.09627 6.8377 2.12547C6.8377 2.13578 6.83644 2.14582 6.83406 2.15545C6.80666 2.13669 6.78676 2.10879 6.7794 2.07651C6.79134 2.06841 6.80187 2.05859 6.81058 2.04743ZM6.81058 2.04743C6.80199 2.03643 6.79164 2.02673 6.77992 2.0187C6.78771 1.98713 6.80753 1.95991 6.83458 1.94157C6.83662 1.95054 6.8377 1.95985 6.8377 1.96939C6.8377 1.99859 6.82762 2.02558 6.81058 2.04743ZM6.58466 2.79418C6.56888 2.73763 6.51425 2.69592 6.44929 2.69592C6.43087 2.69592 6.41328 2.69928 6.39717 2.70537C6.41295 2.76192 6.46757 2.80362 6.53254 2.80362C6.55096 2.80362 6.56855 2.80027 6.58466 2.79418ZM6.66778 2.63766C6.65184 2.58134 6.59733 2.53986 6.53254 2.53986C6.5137 2.53986 6.49573 2.54336 6.47933 2.54972C6.49527 2.60604 6.54978 2.64753 6.61457 2.64753C6.63341 2.64753 6.65137 2.64402 6.66778 2.63766ZM6.7029 2.41334C6.67881 2.39485 6.64806 2.38376 6.61457 2.38376L6.6094 2.38385C6.6335 2.40234 6.66424 2.41343 6.69774 2.41343L6.7029 2.41334ZM6.81058 2.20351C6.7851 2.17085 6.74405 2.14966 6.69774 2.14966C6.65143 2.14966 6.61037 2.17085 6.5849 2.20351C6.61037 2.23616 6.65143 2.25735 6.69774 2.25735C6.74405 2.25735 6.7851 2.23616 6.81058 2.20351ZM5.86897 1.84181C5.90378 1.81782 5.9264 1.77904 5.9264 1.73528C5.9264 1.71416 5.92113 1.6942 5.91177 1.6765C5.87695 1.70049 5.85433 1.73927 5.85433 1.78303C5.85433 1.80415 5.8596 1.82411 5.86897 1.84181ZM6.08303 1.88503C6.1143 1.86084 6.13425 1.82413 6.13425 1.78303C6.13425 1.75659 6.12599 1.73196 6.11177 1.71132C6.0805 1.73551 6.06055 1.77221 6.06055 1.81331C6.06055 1.83976 6.06881 1.86438 6.08303 1.88503ZM6.33984 1.82581C6.33723 1.85204 6.32646 1.87603 6.30995 1.89552C6.31257 1.86929 6.32334 1.8453 6.33984 1.82581ZM6.55939 1.98945C6.57809 1.96703 6.58925 1.93875 6.58925 1.90802C6.58925 1.9012 6.5887 1.8945 6.58764 1.88796C6.56893 1.91038 6.55778 1.93866 6.55778 1.96939C6.55778 1.97621 6.55833 1.98291 6.55939 1.98945ZM6.97883 2.16668C7.02471 2.14503 7.0562 2.10033 7.0562 2.04869C7.0562 2.03429 7.05375 2.02044 7.04923 2.00747C7.00335 2.02912 6.97186 2.07383 6.97186 2.12547C6.97186 2.13986 6.9743 2.15372 6.97883 2.16668ZM7.13957 2.25476C7.20357 2.24263 7.25177 2.18935 7.25177 2.12547C7.25177 2.1177 7.25106 2.1101 7.2497 2.1027C7.18569 2.11483 7.13749 2.16811 7.13749 2.23199C7.13749 2.23976 7.1382 2.24736 7.13957 2.25476ZM7.47169 2.48862C7.52582 2.47788 7.56842 2.43765 7.57971 2.38661C7.52558 2.39736 7.48298 2.43758 7.47169 2.48862ZM7.41739 2.22984L7.41741 2.23199C7.41741 2.29669 7.36797 2.35051 7.30275 2.36173L7.30273 2.35958C7.30273 2.29488 7.35217 2.24106 7.41739 2.22984ZM7.47339 2.54944C7.4896 2.54326 7.50733 2.53985 7.52589 2.53985C7.5908 2.53985 7.64538 2.58148 7.66122 2.63795C7.645 2.64413 7.62728 2.64754 7.60871 2.64754C7.54381 2.64754 7.48922 2.60591 7.47339 2.54944ZM7.39053 2.70539C7.40665 2.69928 7.42426 2.69592 7.44269 2.69592C7.50765 2.69592 7.56227 2.73762 7.57805 2.79415C7.56193 2.80026 7.54433 2.80362 7.52589 2.80362C7.46094 2.80362 7.40632 2.76192 7.39053 2.70539ZM7.44269 2.95969C7.40922 2.95969 7.3785 2.94862 7.35441 2.93015L7.36066 2.93002C7.39413 2.93002 7.42486 2.94109 7.44894 2.95956L7.44269 2.95969ZM7.44267 2.852C7.45684 2.852 7.46834 2.84117 7.46834 2.82781C7.46834 2.81445 7.45684 2.80362 7.44267 2.80362C7.42849 2.80362 7.41699 2.81445 7.41699 2.82781C7.41699 2.84117 7.42849 2.852 7.44267 2.852ZM7.5259 2.69592C7.54007 2.69592 7.55157 2.68509 7.55157 2.67173C7.55157 2.65837 7.54007 2.64754 7.5259 2.64754C7.51172 2.64754 7.50022 2.65837 7.50022 2.67173C7.50022 2.68509 7.51172 2.69592 7.5259 2.69592ZM7.60871 2.53985C7.62289 2.53985 7.63438 2.52902 7.63438 2.51566C7.63438 2.5023 7.62289 2.49146 7.60871 2.49146C7.59453 2.49146 7.58304 2.5023 7.58304 2.51566C7.58304 2.52902 7.59453 2.53985 7.60871 2.53985ZM7.44267 2.38377C7.45684 2.38377 7.46834 2.37294 7.46834 2.35958C7.46834 2.34622 7.45684 2.33539 7.44267 2.33539C7.42849 2.33539 7.41699 2.34622 7.41699 2.35958C7.41699 2.37294 7.42849 2.38377 7.44267 2.38377ZM7.27745 2.25619C7.29163 2.25619 7.30312 2.24536 7.30312 2.23199C7.30312 2.21863 7.29163 2.2078 7.27745 2.2078C7.26327 2.2078 7.25177 2.21863 7.25177 2.23199C7.25177 2.24536 7.26327 2.25619 7.27745 2.25619ZM7.11182 2.14966C7.126 2.14966 7.13749 2.13883 7.13749 2.12547C7.13749 2.11211 7.126 2.10128 7.11182 2.10128C7.09764 2.10128 7.08614 2.11211 7.08614 2.12547C7.08614 2.13883 7.09764 2.14966 7.11182 2.14966ZM6.91624 2.07288C6.93042 2.07288 6.94192 2.06205 6.94192 2.04869C6.94192 2.03533 6.93042 2.0245 6.91624 2.0245C6.90206 2.0245 6.89057 2.03533 6.89057 2.04869C6.89057 2.06205 6.90206 2.07288 6.91624 2.07288ZM6.69774 1.99358C6.71192 1.99358 6.72341 1.98275 6.72341 1.96939C6.72341 1.95603 6.71192 1.9452 6.69774 1.9452C6.68356 1.9452 6.67206 1.95603 6.67206 1.96939C6.67206 1.98275 6.68356 1.99358 6.69774 1.99358ZM6.44929 1.93221C6.46347 1.93221 6.47496 1.92138 6.47496 1.90802C6.47496 1.89466 6.46347 1.88383 6.44929 1.88383C6.43511 1.88383 6.42362 1.89466 6.42362 1.90802C6.42362 1.92138 6.43511 1.93221 6.44929 1.93221ZM6.20048 1.83751C6.21466 1.83751 6.22615 1.82668 6.22615 1.81332C6.22615 1.79995 6.21466 1.78912 6.20048 1.78912C6.1863 1.78912 6.1748 1.79995 6.1748 1.81332C6.1748 1.82668 6.1863 1.83751 6.20048 1.83751ZM5.99429 1.80722C6.00847 1.80722 6.01996 1.79639 6.01996 1.78303C6.01996 1.76967 6.00847 1.75884 5.99429 1.75884C5.98011 1.75884 5.96862 1.76967 5.96862 1.78303C5.96862 1.79639 5.98011 1.80722 5.99429 1.80722ZM5.78642 1.75947C5.80059 1.75947 5.81209 1.74864 5.81209 1.73528C5.81209 1.72192 5.80059 1.71109 5.78642 1.71109C5.77224 1.71109 5.76074 1.72192 5.76074 1.73528C5.76074 1.74864 5.77224 1.75947 5.78642 1.75947ZM6.69774 2.14966C6.71192 2.14966 6.72341 2.13883 6.72341 2.12547C6.72341 2.11211 6.71192 2.10128 6.69774 2.10128C6.68356 2.10128 6.67206 2.11211 6.67206 2.12547C6.67206 2.13883 6.68356 2.14966 6.69774 2.14966ZM6.69774 2.30573C6.71192 2.30573 6.72341 2.2949 6.72341 2.28154C6.72341 2.26818 6.71192 2.25735 6.69774 2.25735C6.68356 2.25735 6.67206 2.26818 6.67206 2.28154C6.67206 2.2949 6.68356 2.30573 6.69774 2.30573ZM6.61454 2.53984C6.62872 2.53984 6.64021 2.52901 6.64021 2.51565C6.64021 2.50229 6.62872 2.49146 6.61454 2.49146C6.60036 2.49146 6.58887 2.50229 6.58887 2.51565C6.58887 2.52901 6.60036 2.53984 6.61454 2.53984ZM6.53251 2.69594C6.54669 2.69594 6.55818 2.6851 6.55818 2.67174C6.55818 2.65838 6.54669 2.64755 6.53251 2.64755C6.51833 2.64755 6.50684 2.65838 6.50684 2.67174C6.50684 2.6851 6.51833 2.69594 6.53251 2.69594ZM6.44929 2.852C6.46347 2.852 6.47496 2.84117 6.47496 2.82781C6.47496 2.81445 6.46347 2.80362 6.44929 2.80362C6.43511 2.80362 6.42362 2.81445 6.42362 2.82781C6.42362 2.84117 6.43511 2.852 6.44929 2.852Z" fill="white"/>
      <path fill-rule="evenodd" clip-rule="evenodd" d="M5.11041 0.960635L4.89153 0.967007L4.88702 1.3083L4.48312 1.31358L4.48496 1.52071L4.88428 1.5155L4.87913 1.9045L5.09801 1.89813L5.10311 1.51264L5.50045 1.50746L5.49861 1.30032L5.10585 1.30545L5.11041 0.960635Z" fill="#F6C540"/>
      <path fill-rule="evenodd" clip-rule="evenodd" d="M2.01953 4.50293H7.96239V9.25941C7.96239 9.25941 7.78267 11.6287 4.99096 11.6287C2.19925 11.6287 2.01953 9.25941 2.01953 9.25941V4.50293Z" fill="#C51918"/>
      <path fill-rule="evenodd" clip-rule="evenodd" d="M3.81261 4.66748C3.75812 4.66748 3.67423 4.70436 3.56304 4.74612C3.45184 4.78788 3.33507 4.87805 3.44905 4.96836C3.56304 5.05867 3.72621 5.25688 3.72621 5.18277C3.72621 5.10866 3.92114 5.03681 3.92114 5.07274C3.92114 5.10866 3.86079 5.18277 4.0191 5.18277C4.1774 5.18277 4.25896 5.22685 4.09005 5.22685C3.92114 5.22685 3.90279 5.29965 3.79302 5.29965C3.68324 5.29965 3.44905 5.2263 3.44905 5.18277C3.44905 5.13925 3.58468 5.39675 3.72621 5.39675C3.86775 5.39675 3.94814 5.52204 4.0191 5.45939C4.09005 5.39675 4.08165 5.39675 4.19628 5.39675C4.31091 5.39675 4.26907 5.14375 4.26907 5.14375C4.26907 5.14375 3.86711 4.66748 3.81261 4.66748Z" fill="#E8AA00"/>
      <path fill-rule="evenodd" clip-rule="evenodd" d="M6.10633 4.66748C6.16083 4.66748 6.24471 4.70436 6.35591 4.74612C6.4671 4.78788 6.58388 4.87805 6.46989 4.96836C6.35591 5.05867 6.19273 5.25688 6.19273 5.18277C6.19273 5.10866 5.9978 5.03681 5.9978 5.07274C5.9978 5.10866 6.05815 5.18277 5.89985 5.18277C5.74155 5.18277 5.65999 5.22685 5.8289 5.22685C5.9978 5.22685 6.01616 5.29965 6.12593 5.29965C6.2357 5.29965 6.46989 5.2263 6.46989 5.18277C6.46989 5.13925 6.33427 5.39675 6.19273 5.39675C6.05119 5.39675 5.9708 5.52204 5.89985 5.45939C5.8289 5.39675 5.83729 5.39675 5.72267 5.39675C5.60804 5.39675 5.64988 5.14375 5.64988 5.14375C5.64988 5.14375 6.05184 4.66748 6.10633 4.66748Z" fill="#E8AA00"/>
      <path fill-rule="evenodd" clip-rule="evenodd" d="M6.83521 5.18465C6.94913 5.43499 6.07603 6.36496 6.07603 6.36496H5.97827C5.93718 6.36496 5.86078 6.26971 5.76852 6.1547C5.70529 6.07587 5.63461 5.98776 5.56276 5.91468C5.42759 5.77719 5.49923 5.66169 5.56601 5.55402C5.58652 5.52094 5.60658 5.48861 5.62004 5.4566C5.6492 5.38726 5.65335 5.3596 5.65809 5.32799C5.66266 5.29752 5.66778 5.26337 5.69642 5.18465C5.73849 5.06896 5.8852 4.9197 5.98692 4.8162C6.0262 4.77623 6.05878 4.74309 6.07603 4.72134C6.13049 4.65268 6.08917 4.65308 5.97548 4.65418C5.95988 4.65433 5.94292 4.65449 5.92466 4.65449C5.77329 4.65449 5.48414 4.72134 5.39771 4.79941C5.31128 4.87749 5.22065 4.89414 5.08748 4.89414C4.95431 4.89414 5.03645 4.97865 5.15773 5.03572C5.02691 5.05929 4.94313 5.2651 4.89398 5.44746C4.86722 5.2651 4.80805 5.05929 4.67723 5.03572C4.79851 4.97865 4.88065 4.89414 4.74748 4.89414C4.61431 4.89414 4.52368 4.87749 4.43725 4.79941C4.35082 4.72134 4.06167 4.65449 3.9103 4.65449C3.89204 4.65449 3.87508 4.65433 3.85948 4.65418C3.74579 4.65308 3.70447 4.65268 3.75893 4.72134C3.77619 4.74309 3.80876 4.77623 3.84804 4.8162C3.94976 4.9197 4.09647 5.06896 4.13854 5.18465C4.16718 5.26337 4.1723 5.29752 4.17687 5.32799C4.18161 5.3596 4.18576 5.38726 4.21492 5.4566C4.22838 5.48861 4.24844 5.52094 4.26895 5.55402C4.33574 5.66169 4.40737 5.77719 4.2722 5.91468C4.20035 5.98776 4.12968 6.07587 4.06644 6.1547C3.97418 6.26971 3.89778 6.36496 3.8567 6.36496H3.75893C3.75893 6.36496 2.88583 5.43499 2.99976 5.18465C3.04379 5.08789 3.11481 4.99671 3.17359 4.92125C3.26687 4.80149 3.32931 4.72134 3.204 4.72134C2.99976 4.72134 2.18555 5.20784 2.18555 6.3048C2.18555 7.40177 2.26076 8.02566 2.43534 8.46274C2.55448 8.76102 2.44535 9.05068 2.36402 9.26657C2.32617 9.36703 2.29434 9.45152 2.29434 9.51346C2.29434 9.70849 2.61492 9.5376 2.61492 9.41547C2.61492 9.35738 2.65881 9.44388 2.70485 9.53461C2.75561 9.63463 2.80898 9.7398 2.80898 9.66194C2.80898 9.57886 2.86009 9.49112 2.90511 9.41383C2.94056 9.35297 2.97224 9.29859 2.97224 9.25805C2.97224 9.21751 3.01721 9.21902 3.06753 9.2207C3.13145 9.22283 3.204 9.22525 3.204 9.14218C3.204 9.08613 3.22709 9.07494 3.25583 9.061C3.30322 9.03802 3.366 9.00758 3.366 8.75624C3.366 8.56995 3.40558 8.63595 3.45098 8.71166C3.49276 8.78133 3.53948 8.85923 3.56481 8.75624C3.56727 8.74621 3.5935 8.70301 3.62592 8.64962C3.67311 8.57191 3.73342 8.47259 3.75271 8.42242C3.69324 8.64183 3.55055 8.87046 3.45994 8.97937C3.366 9.0923 3.204 9.33744 3.204 9.33744C3.204 9.33744 3.35508 9.41682 3.45994 9.33744C3.51851 9.2931 3.52247 9.33482 3.52678 9.38029C3.53018 9.41623 3.53381 9.45452 3.56481 9.45452C3.58427 9.45452 3.60259 9.45752 3.61891 9.46018C3.63098 9.46216 3.64195 9.46395 3.65148 9.46422C3.61648 9.54824 3.58508 9.68261 3.69039 9.59283C3.7656 9.52872 3.81834 9.5027 3.85328 9.48546C3.89371 9.46552 3.9103 9.45733 3.9103 9.41547C3.9103 9.37369 3.92673 9.38784 3.95246 9.41001C3.9748 9.42925 4.00414 9.45452 4.03584 9.45452C4.07668 9.45452 4.08519 9.40092 4.09756 9.32297C4.10585 9.27071 4.11588 9.20752 4.13854 9.14218C4.14383 9.12696 4.14879 9.11232 4.15349 9.09845C4.19909 8.96396 4.22036 8.90124 4.2722 9.0709C4.29643 9.15018 4.33923 9.20632 4.3765 9.25521C4.4272 9.32171 4.46767 9.3748 4.43725 9.45452C4.42534 9.48573 4.4104 9.52099 4.39441 9.55875C4.33952 9.68832 4.2722 9.84723 4.2722 9.97235C4.2722 10.0467 4.20034 10.1481 4.1328 10.2434C4.05364 10.3551 3.98042 10.4584 4.03584 10.5C4.13854 10.5771 4.01426 10.8368 3.9103 10.9701C3.80634 11.1033 4.67723 11.4091 4.82931 11.4091C4.83161 11.4091 4.83386 11.4078 4.83606 11.4052V11.4091C4.83606 11.4091 5.92466 11.3593 5.92466 10.9701C5.8207 10.8368 5.69642 10.5771 5.79912 10.5C5.85454 10.4584 5.78132 10.3551 5.70216 10.2434C5.63462 10.1481 5.56276 10.0467 5.56276 9.97235C5.56276 9.84723 5.49544 9.68832 5.44055 9.55875C5.42456 9.52099 5.40962 9.48573 5.39771 9.45452C5.36729 9.3748 5.40776 9.32171 5.45847 9.25521C5.49573 9.20632 5.53853 9.15018 5.56276 9.0709C5.6146 8.90124 5.63587 8.96396 5.68147 9.09845C5.68617 9.11232 5.69114 9.12696 5.69642 9.14218C5.71909 9.20752 5.72911 9.27071 5.7374 9.32297C5.74977 9.40092 5.75828 9.45452 5.79912 9.45452C5.83082 9.45452 5.86016 9.42925 5.8825 9.41001C5.90823 9.38784 5.92466 9.37369 5.92466 9.41547C5.92466 9.45733 5.94125 9.46552 5.98169 9.48546C6.01662 9.5027 6.06936 9.52872 6.14457 9.59283C6.24988 9.68261 6.21848 9.54824 6.18348 9.46422C6.19301 9.46395 6.20398 9.46216 6.21605 9.46018C6.23237 9.45752 6.25069 9.45452 6.27015 9.45452C6.30115 9.45452 6.30478 9.41623 6.30818 9.38029C6.31249 9.33482 6.31645 9.2931 6.37502 9.33744C6.47988 9.41682 6.63096 9.33744 6.63096 9.33744C6.63096 9.33744 6.46896 9.0923 6.37502 8.97937C6.28441 8.87046 6.14172 8.64183 6.08225 8.42242C6.10154 8.47259 6.16185 8.57191 6.20904 8.64962C6.24146 8.70301 6.26769 8.74621 6.27015 8.75624C6.29548 8.85923 6.3422 8.78133 6.38398 8.71166C6.42938 8.63595 6.46896 8.56995 6.46896 8.75624C6.46896 9.00758 6.53174 9.03802 6.57913 9.061C6.60787 9.07494 6.63096 9.08613 6.63096 9.14218C6.63096 9.22525 6.70351 9.22283 6.76743 9.2207C6.81775 9.21902 6.86272 9.21751 6.86272 9.25805C6.86272 9.29859 6.8944 9.35297 6.92985 9.41383C6.97487 9.49112 7.02598 9.57886 7.02598 9.66194C7.02598 9.7398 7.07935 9.63463 7.13011 9.53461C7.17615 9.44388 7.22004 9.35738 7.22004 9.41547C7.22004 9.5376 7.54062 9.70849 7.54062 9.51346C7.54062 9.45152 7.50879 9.36703 7.47094 9.26657C7.38961 9.05068 7.28049 8.76102 7.39962 8.46274C7.5742 8.02566 7.64941 7.40177 7.64941 6.3048C7.64941 5.20784 6.83521 4.72134 6.63096 4.72134C6.50566 4.72134 6.56809 4.80149 6.66138 4.92125C6.72015 4.99671 6.79117 5.08789 6.83521 5.18465ZM6.07603 8.39823C6.07799 8.40628 6.08006 8.41435 6.08225 8.42242C6.07826 8.41205 6.07603 8.40377 6.07603 8.39823ZM6.14457 9.41547C6.14457 9.38809 6.16455 9.4188 6.18348 9.46422C6.15941 9.4649 6.14457 9.45587 6.14457 9.41547ZM3.65148 9.46422C3.67555 9.4649 3.69039 9.45587 3.69039 9.41547C3.69039 9.38809 3.67041 9.4188 3.65148 9.46422ZM3.75271 8.42242C3.7567 8.41205 3.75893 8.40377 3.75893 8.39823C3.75698 8.40628 3.7549 8.41435 3.75271 8.42242Z" fill="#F7FCFF"/>
      <path fill-rule="evenodd" clip-rule="evenodd" d="M3.88367 6.44153H6.09825V8.09088C6.09825 8.09088 5.86051 8.91246 4.99096 8.91246C4.12141 8.91246 3.88367 8.09088 3.88367 8.09088V6.44153Z" fill="#C51918"/>
      <path fill-rule="evenodd" clip-rule="evenodd" d="M5.28958 6.4176H4.70987V7.36446H3.88171V7.70263H4.70987V8.92002H5.28958V7.70263H6.11774V7.36446H5.28958V6.4176Z" fill="#F7FCFF"/>
      <path fill-rule="evenodd" clip-rule="evenodd" d="M3.43687 10.1634C3.70603 9.8538 3.95829 9.57843 3.73385 9.38333C3.50942 9.18823 3.24147 9.35736 2.97231 9.66699C2.70315 9.97662 2.5347 10.3095 2.75914 10.5046C2.98358 10.6997 3.16771 10.4731 3.43687 10.1634Z" fill="#E8AA00"/>
      <path fill-rule="evenodd" clip-rule="evenodd" d="M6.36757 10.1634C6.09841 9.8538 5.84615 9.57843 6.07059 9.38333C6.29503 9.18823 6.56298 9.35736 6.83214 9.66699C7.1013 9.97662 7.26974 10.3095 7.0453 10.5046C6.82087 10.6997 6.63673 10.4731 6.36757 10.1634Z" fill="#E8AA00"/>
    </g>
  </g>
</svg>
