<svg width="16" height="13" viewBox="0 0 16 13" fill="none" xmlns="http://www.w3.org/2000/svg">
  <mask id="mask0_2092_1085" style="mask-type:luminance" maskUnits="userSpaceOnUse" x="0" y="0" width="16" height="13">
    <rect y="0.5" width="16" height="12" fill="white"/>
  </mask>
  <g mask="url(#mask0_2092_1085)">
    <path fill-rule="evenodd" clip-rule="evenodd" d="M0 0.5V12.5H16V0.5H0Z" fill="#2E42A5"/>
    <mask id="mask1_2092_1085" style="mask-type:luminance" maskUnits="userSpaceOnUse" x="0" y="0" width="16" height="13">
      <path fill-rule="evenodd" clip-rule="evenodd" d="M0 0.5V12.5H16V0.5H0Z" fill="white"/>
    </mask>
    <g mask="url(#mask1_2092_1085)">
      <path fill-rule="evenodd" clip-rule="evenodd" d="M0 0.5V4.5H16V0.5H0Z" fill="#F7FCFF"/>
      <path fill-rule="evenodd" clip-rule="evenodd" d="M0 8.5V12.5H16V8.5H0Z" fill="#C51918"/>
      <path fill-rule="evenodd" clip-rule="evenodd" d="M6.87012 3.01809C6.87012 3.01809 5.81775 2.52112 4.50885 2.52112C3.19995 2.52112 2.14758 3.01809 2.14758 3.01809C2.14758 3.01809 2.2647 5.01544 2.4498 6.07355C2.52883 6.52532 2.9087 7.18424 3.2526 7.49612C3.64458 7.85159 4.50885 8.27274 4.50885 8.27274C4.75896 8.1004 5.22659 8.0229 5.82431 7.49612C6.42202 6.96934 6.57059 6.07355 6.57059 6.07355L6.87012 3.01809Z" fill="#2E42A5"/>
      <path d="M6.73102 2.95276L7.16928 3.17162L6.86842 6.18293C6.76305 6.82026 6.49939 7.32286 6.07775 7.69446C5.84902 7.89604 5.62576 8.04666 5.38639 8.1718C5.25128 8.24244 4.68611 8.53358 4.69103 8.5312C4.6344 8.55849 4.59146 8.5824 4.55658 8.60643L4.50192 8.6441L4.4429 8.61534C3.85752 8.3301 3.31137 7.94623 3.03996 7.7001C2.66947 7.36411 2.27883 6.67658 2.19555 6.20051C2.07102 5.48868 1.95935 4.50823 1.88098 3.17162L2.27468 2.96565C2.35246 4.29219 2.44635 5.34965 2.56863 6.04862C2.64097 6.46217 3.0012 7.09616 3.32982 7.39418C3.57268 7.61442 3.96395 7.85864 4.50192 8.12424C4.53401 8.10544 4.56957 8.08683 4.61026 8.06722C4.6114 8.06667 4.97736 7.90415 5.10454 7.83765C5.32761 7.72103 5.53496 7.58115 5.74844 7.393C6.12273 7.06314 6.35633 6.6189 6.45081 6.05455L6.73102 2.95276Z" fill="#C51918"/>
      <path fill-rule="evenodd" clip-rule="evenodd" d="M2.77063 6.01209C2.77063 6.01209 3.0285 6.801 3.48009 7.24134C3.93169 7.68167 4.48995 7.8975 4.48995 7.8975C4.48995 7.8975 5.15489 7.69629 5.53228 7.27267C5.90966 6.84904 6.29602 6.01209 6.29602 6.01209L5.41837 5.1698L5.06954 5.54833L4.48995 4.72205L4.00472 5.54833L3.63265 5.1698L2.77063 6.01209Z" fill="white"/>
      <path fill-rule="evenodd" clip-rule="evenodd" d="M3.57348 3.44302H3.22192L3.49459 3.18758L3.22192 2.91765H3.57348L3.72192 2.65564L3.87096 2.91765H4.22192L3.96289 3.17137L4.1929 3.44302H3.87096L3.72192 3.71952L3.57348 3.44302Z" fill="#FECA00"/>
      <path fill-rule="evenodd" clip-rule="evenodd" d="M5.23059 3.44302H4.87903L5.1517 3.18758L4.87903 2.91765H5.23059L5.37903 2.65564L5.52807 2.91765H5.87903L5.61999 3.17137L5.85 3.44302H5.52807L5.37903 3.71952L5.23059 3.44302Z" fill="#FECA00"/>
      <path fill-rule="evenodd" clip-rule="evenodd" d="M4.29992 4.28372H3.94836L4.22103 4.02828L3.94836 3.75835H4.29992L4.44836 3.49634L4.5974 3.75835H4.94836L4.68933 4.01207L4.91934 4.28372H4.5974L4.44836 4.56022L4.29992 4.28372Z" fill="#FECA00"/>
    </g>
  </g>
</svg>
