<svg width="16" height="13" viewBox="0 0 16 13" fill="none" xmlns="http://www.w3.org/2000/svg">
  <mask id="mask0_2092_1191" style="mask-type:luminance" maskUnits="userSpaceOnUse" x="0" y="0" width="16" height="13">
    <rect y="0.5" width="16" height="12" fill="white"/>
  </mask>
  <g mask="url(#mask0_2092_1191)">
    <path fill-rule="evenodd" clip-rule="evenodd" d="M0 8.5H16V12.5H0V8.5Z" fill="#14DC5A"/>
    <path fill-rule="evenodd" clip-rule="evenodd" d="M0 0.5H16V5.5H0V0.5Z" fill="#0099B5"/>
    <path d="M-1 5.125H-1.375V5.5V8.5V8.875H-1H17H17.375V8.5V5.5V5.125H17H-1Z" fill="#F7FCFF" stroke="#C51918" stroke-width="0.75"/>
    <path fill-rule="evenodd" clip-rule="evenodd" d="M8.36368 1.70049L7.87233 1.97923L8.01266 1.41272L7.542 0.996423H8.15675L8.36294 0.460327L8.6047 0.996423H9.12877L8.717 1.41272L8.91499 1.97923L8.36368 1.70049ZM5.84477 3.23767L6.33611 2.95893L6.88742 3.23767L6.68943 2.67116L7.1012 2.25486H6.57714L6.33537 1.71877L6.12919 2.25486H5.51443L5.9851 2.67116L5.84477 3.23767ZM4.48867 4.27662L3.99733 4.55537L4.13766 3.98885L3.66699 3.57256H4.28175L4.48793 3.03646L4.7297 3.57256H5.25376L4.842 3.98885L5.03998 4.55537L4.48867 4.27662ZM6.36465 4.2788L5.87331 4.55754L6.01364 3.99103L5.54297 3.57473H6.15773L6.36391 3.03864L6.60568 3.57473H7.12974L6.71797 3.99103L6.91596 4.55754L6.36465 4.2788ZM8.36465 4.2788L7.87331 4.55754L8.01364 3.99103L7.54297 3.57473H8.15773L8.36391 3.03864L8.60568 3.57473H9.12974L8.71797 3.99103L8.91596 4.55754L8.36465 4.2788ZM7.84477 3.23767L8.33611 2.95893L8.88742 3.23767L8.68943 2.67116L9.1012 2.25486H8.57714L8.33537 1.71877L8.12919 2.25486H7.51443L7.9851 2.67116L7.84477 3.23767ZM9.87331 4.55754L10.3647 4.2788L10.916 4.55754L10.718 3.99103L11.1297 3.57473H10.6057L10.3639 3.03864L10.1577 3.57473H9.54297L10.0136 3.99103L9.87331 4.55754ZM10.3361 2.95893L9.84477 3.23767L9.9851 2.67116L9.51443 2.25486H10.1292L10.3354 1.71877L10.5771 2.25486H11.1012L10.6894 2.67116L10.8874 3.23767L10.3361 2.95893ZM9.87233 1.97923L10.3637 1.70049L10.915 1.97923L10.717 1.41272L11.1288 0.996423H10.6047L10.3629 0.460327L10.1568 0.996423H9.542L10.0127 1.41272L9.87233 1.97923ZM12.3647 4.2788L11.8733 4.55754L12.0136 3.99103L11.543 3.57473H12.1577L12.3639 3.03864L12.6057 3.57473H13.1297L12.718 3.99103L12.916 4.55754L12.3647 4.2788ZM11.8448 3.23767L12.3361 2.95893L12.8874 3.23767L12.6894 2.67116L13.1012 2.25486H12.5771L12.3354 1.71877L12.1292 2.25486H11.5144L11.9851 2.67116L11.8448 3.23767ZM12.3637 1.70049L11.8723 1.97923L12.0127 1.41272L11.542 0.996423H12.1568L12.3629 0.460327L12.6047 0.996423H13.1288L12.717 1.41272L12.915 1.97923L12.3637 1.70049ZM2.94245 4.62034C2.94245 4.62034 1.73453 4.29273 1.75727 3.08099C1.78002 1.86924 3 1.55464 3 1.55464C2.50151 1.36587 1.02757 1.61917 1.00036 3.0687C0.973155 4.51823 2.47796 4.80379 2.94245 4.62034Z" fill="#F7FCFF"/>
  </g>
</svg>
