<svg width="136" height="40" viewBox="0 0 136 40" fill="none" xmlns="http://www.w3.org/2000/svg">
  <path d="M12.3 40h21.1v-6.5H18.8V21.2h14.6v-6.5H12.3V40z" fill="#fff"/>
  <path d="M0 0v25.5h6.5v-19h12.3v6.6h6.5V0H0zM46 17.5v-15h14v15h-4.2V4.9l1 1h-7.6l1-1v12.6H46zM64 17.5v-15h6.8c1.3 0 2.5.2 3.5.6a5.1 5.1 0 0 1 3 4.9c0 1.1-.2 2.1-.7 3-.6.8-1.3 1.4-2.3 1.9-1 .4-2.2.6-3.5.6h-4.5l1.9-1.8v5.8H64zm4.2-5.4l-1.9-2h4.2c.9 0 1.5-.1 2-.5.4-.4.6-1 .6-1.6a2 2 0 0 0-.6-1.6c-.5-.4-1.1-.6-2-.6h-4.2l1.9-2v8.3zM80.1 17.5v-15h4.2v8.8l6-8.9h4v15h-4.1V8.8l-6.1 8.8h-4zM98.4 17.5v-15h3.4l6.2 10.2H106l6-10.3h3.5v15h-3.8v-9h.6l-4.5 7.6h-1.8l-4.6-7.6h.7v9h-3.8zM118.2 17.5l6.5-15h4.2l6.6 15H131l-5.2-13h1.7l-5.1 13h-4.3zm3.6-3l1-3h7.3l1 3h-9.3z" fill="#EB3223"/>
  <path d="M54.1 37.6c-1.1 0-2.2-.2-3.2-.6-1-.4-1.9-1-2.6-1.6a7.7 7.7 0 0 1-2.3-5.7 7.8 7.8 0 0 1 2.3-5.6c.7-.7 1.6-1.2 2.6-1.6 1-.4 2-.6 3.2-.6 1.4 0 2.6.3 3.7.8a7 7 0 0 1 2.7 2l-2.7 2.5c-.4-.6-1-1-1.5-1.3a4.5 4.5 0 0 0-3.6-.2c-.5.3-1 .6-1.3 1a4.2 4.2 0 0 0-1.2 3 4.5 4.5 0 0 0 1.1 3.1l1.4 1a4.5 4.5 0 0 0 3.6-.2c.5-.3 1-.8 1.5-1.3l2.7 2.4c-.7 1-1.6 1.6-2.7 2.1-1 .5-2.3.8-3.7.8zM65.6 28h6.9v3.2h-6.9v-3.1zm.3 6h7.8v3.3h-12v-15h11.7v3.2h-7.5V34zM75.4 37.3v-15h6.8c1.3 0 2.5.2 3.5.6a5.1 5.1 0 0 1 3 4.9c0 1.1-.2 2.1-.7 3-.6.8-1.3 1.4-2.3 1.9-1 .4-2.2.6-3.5.6h-4.5l2-1.8v5.8h-4.3zm4.2-5.4l-1.9-2H82c1 0 1.6-.1 2-.5.4-.4.6-1 .6-1.6a2 2 0 0 0-.6-1.6c-.4-.4-1-.6-2-.6h-4.2l2-2V32zM90 37.3v-15h7.2a7 7 0 0 1 4.2 1c1 .6 1.4 1.6 1.4 2.8 0 1.3-.4 2.2-1.3 3a6 6 0 0 1-3.7 1l.4-1c1.7 0 3 .3 3.9 1 1 .6 1.4 1.6 1.4 2.9 0 1.3-.5 2.3-1.5 3a7 7 0 0 1-4.4 1.3H90zm4.2-3h3.3c.6 0 1-.2 1.3-.5.3-.3.5-.6.5-1.2 0-.5-.2-.9-.5-1.1-.3-.3-.7-.4-1.3-.4h-3.3v3.1zm0-6h2.6c.6 0 1-.2 1.4-.4.3-.3.4-.6.4-1.1 0-.5-.1-.9-.4-1.1-.3-.3-.8-.4-1.4-.4h-2.6v3zM105.1 37.3v-15h4.2V31l6-8.9h4v15h-4.1v-8.7l-6.1 8.8h-4zM129 37.6c-1 0-2.2-.2-3.2-.6-1-.4-1.8-1-2.6-1.6a7.7 7.7 0 0 1-2.3-5.7 7.8 7.8 0 0 1 2.3-5.6c.8-.7 1.6-1.2 2.6-1.6 1-.4 2.1-.6 3.3-.6 1.3 0 2.6.3 3.6.8a7 7 0 0 1 2.8 2l-2.7 2.5c-.5-.6-1-1-1.6-1.3a4.5 4.5 0 0 0-3.6-.2c-.5.3-1 .6-1.3 1l-.8 1.3a5 5 0 0 0-.3 1.7c0 .7 0 1.3.3 1.8l.8 1.4 1.3.8a4.5 4.5 0 0 0 3.6-.1c.6-.3 1.1-.8 1.6-1.3l2.6 2.4c-.7 1-1.6 1.6-2.7 2.1-1 .5-2.3.8-3.6.8z" fill="#fff"/>
</svg>
