<svg width="24" height="24" viewBox="0 0 24 24" fill="none" xmlns="http://www.w3.org/2000/svg">
  <path d="M9.44827 8.09124L9.44835 8.09122L9.44492 8.08085C9.12039 7.09848 8.94444 6.04455 8.94444 4.94444C8.94444 4.01079 8.18366 3.25 7.25 3.25H3.94444C3.01079 3.25 2.25 4.01079 2.25 4.94444C2.25 14.227 9.77301 21.75 19.0556 21.75C19.9892 21.75 20.75 20.9892 20.75 20.0556V16.7594C20.75 15.8258 19.9892 15.065 19.0556 15.065C17.9658 15.065 16.9036 14.8893 15.9224 14.5656C15.3213 14.3615 14.6459 14.5173 14.1902 14.973L12.5067 16.6565C10.3471 15.439 8.55252 13.6501 7.34251 11.4943L9.027 9.80977C9.49766 9.33911 9.63221 8.67651 9.44827 8.09124Z" stroke="white" stroke-width="1.5"/>
</svg>
