<svg width="60" height="60" viewBox="0 0 60 60" fill="none" xmlns="http://www.w3.org/2000/svg">
  <path d="M59 50.8s-2-2.3-2.4-5a9.1 9.1 0 0 0 2.3-6c0-6-6.5-11-14.5-10.9-8 .1-14.5 5-14.5 11.1 0 6 6.6 11 14.6 10.9 3.1 0 6-.8 8.4-2.1 3 1.9 6.1 2 6.1 2h0z" stroke="#fff" stroke-width="1.5" stroke-linecap="round" stroke-linejoin="round"/>
  <path d="M39.5 35l1 2c.1.2.3.3.6.4l2.2.3c.7 0 1 1 .5 1.5l-1.6 1.6c-.2.1-.3.3-.2.5l.4 2.3a.9.9 0 0 1-1.3 1l-2-1.2a.7.7 0 0 0-.6 0l-2 1.1a.9.9 0 0 1-1.3-.9l.4-2.3c0-.2 0-.4-.2-.5l-1.7-1.6a.9.9 0 0 1 .5-1.5l2.3-.3c.2 0 .4-.2.5-.4l1-2a.9.9 0 0 1 1.5 0h0z" stroke="#FD694C" stroke-width="1.5" stroke-linecap="round" stroke-linejoin="round"/>
  <path d="M43.5 35a.9.9 0 0 1 1.5 0l1 2 .6.4 2.2.3c.7 0 1 1 .5 1.5l-1.6 1.6c-.2.1-.3.3-.2.5l.4 2.3a.9.9 0 0 1-1.3 1l-2-1.2" stroke="#FD694C" stroke-width="1.5" stroke-linecap="round" stroke-linejoin="round"/>
  <path d="M49 35a.9.9 0 0 1 1.6 0l1 2c.1.2.3.3.6.4l2.2.3c.7 0 1 1 .5 1.5l-1.6 1.6c-.2.1-.3.3-.2.5l.4 2.3a.9.9 0 0 1-1.3 1l-2-1.2" stroke="#FD694C" stroke-width="1.5" stroke-linecap="round" stroke-linejoin="round"/>
  <path d="M31.2 49.3l-2.6 1a21.6 21.6 0 1 1 15.3-23.8" stroke="#fff" stroke-width="1.5" stroke-linecap="round" stroke-linejoin="round"/>
  <path d="M20.3 48c-4-3-7.7-8.3-9.6-15a28.5 28.5 0 0 1 0-17.5M17.4 11.6l10.4 36M4.6 34.8l36-10.4M5.6 21.6l27.1-7.8M12.4 45.4L28 40.9M25.1 11.4A28.5 28.5 0 0 1 35 27.9" stroke="#fff" stroke-width="1.5" stroke-linecap="round" stroke-linejoin="round"/>
</svg>
