<svg width="60" height="60" viewBox="0 0 60 60" fill="none" xmlns="http://www.w3.org/2000/svg">
  <path d="M12.2 25.4a4.7 4.7 0 1 0 0-9.3 4.7 4.7 0 0 0 0 9.3zM26.2 26.2L23 29.4l-3.2 3.2c-1 1-1.7 2.5-1.7 4v7.2s0 0 0 0v12.7c0 1.4-.8 2.5-2.2 2.5a2.4 2.4 0 0 1-2.4-2.5V46.3a1.3 1.3 0 0 0-2.6 0v10.2c0 1.4-1 2.5-2.4 2.5s-2.2-1.1-2.2-2.5V43.8s0 0 0 0v-10" stroke="#fff" stroke-width="1.5" stroke-linecap="round" stroke-linejoin="round"/>
  <path d="M6.3 42.1c0 1.3-1 2.3-2.3 2.3-1.2 0-2-1-2-2.3v-9c0-2.6 2.1-4.7 4.7-4.7h9.9c.8 0 1.7-.3 2.3-1l1-1 2-2" stroke="#fff" stroke-width="1.5" stroke-linecap="round" stroke-linejoin="round"/>
  <path d="M41.1 13.8v-3.2c0-.5-.4-1-.9-1h-1.4L38 7.9l1-1c.4-.4.4-1 0-1.4l-2.3-2.3a.9.9 0 0 0-1.3 0l-1 1-2-.7V1.9c0-.5-.3-.9-.8-.9h-3.3a1 1 0 0 0-1 1v1.3l-1.9.8-1-1a.9.9 0 0 0-1.3 0l-2.3 2.3c-.3.4-.3 1 0 1.3l1 1a9 9 0 0 0-.8 2h-1.4a1 1 0 0 0-.9.9v3.2c0 .5.4 1 1 1H21l.8 2-1 1c-.3.3-.3.8 0 1.2l2.3 2.3c.4.4 1 .4 1.3 0l1-1 2 .8v1.4c0 .5.4 1 .9 1h3.3c.5 0 .9-.5.9-1v-1.4l1.9-.8 1 1c.4.4 1 .4 1.3 0L39 19c.4-.4.4-1 0-1.3l-1-1 .8-2h1.4c.5 0 1-.4 1-.9v0z" stroke="#FD694C" stroke-width="1.5" stroke-linecap="round" stroke-linejoin="round"/>
  <path d="M30 16.8a4.6 4.6 0 1 0 0-9.1 4.6 4.6 0 0 0 0 9z" stroke="#FD694C" stroke-width="1.5" stroke-linecap="round" stroke-linejoin="round"/>
  <path d="M47.6 25.4a4.7 4.7 0 1 1 0-9.3 4.7 4.7 0 0 1 0 9.3zM33.6 26.2l3.3 3.2 3.2 3.2c1 1 1.6 2.5 1.6 4v7.2s0 0 0 0v12.7c0 1.4.9 2.5 2.2 2.5 1.3 0 2.4-1.1 2.4-2.5V46.3a1.3 1.3 0 0 1 2.7 0v10.2c0 1.4 1 2.5 2.4 2.5 1.3 0 2.2-1.1 2.2-2.5V43.8s0 0 0 0v-10" stroke="#fff" stroke-width="1.5" stroke-linecap="round" stroke-linejoin="round"/>
  <path d="M53.6 42.1c0 1.3 1 2.3 2.2 2.3 1.2 0 2-1 2-2.3v-9c0-2.6-2-4.7-4.7-4.7h-9.8c-.9 0-1.7-.3-2.4-1l-1-1-2-2" stroke="#fff" stroke-width="1.5" stroke-linecap="round" stroke-linejoin="round"/>
</svg>
