<svg width="60" height="60" viewBox="0 0 60 60" fill="none" xmlns="http://www.w3.org/2000/svg">
  <path d="M55 41.8v1.8c0 .8.5 1.4 1.3 1.4H59" stroke="#FD694C" stroke-width="1.5" stroke-linecap="round" stroke-linejoin="round"/>
  <path d="M45 49.9H28.3M36 22.8h5c1 0 1.8.8 1.8 1.8v11.8c0 3 2.4 5.4 5.3 5.4H59v4.7c0 1.9-1.5 3.4-3.4 3.4h-2.8M42.8 27.5C50.5 27.8 59 34 59 41.8M28.5 49.5a4 4 0 1 0-8 0 4 4 0 0 0 8 0z" stroke="#fff" stroke-width="1.5" stroke-linecap="round" stroke-linejoin="round"/>
  <path d="M51.6 52.3a4 4 0 1 0-5.5-5.6 4 4 0 0 0 5.5 5.6z" stroke="#fff" stroke-width="1.5" stroke-linecap="round" stroke-linejoin="round"/>
  <path d="M46.5 31.9c2.3.8 4.5 2.2 6.1 4" stroke="#FD694C" stroke-width="1.5" stroke-linecap="round" stroke-linejoin="round"/>
  <path d="M6.9 49.9h13.7" stroke="#fff" stroke-width="1.5" stroke-linecap="round" stroke-linejoin="round"/>
  <path d="M5 41h3" stroke="#FD694C" stroke-width="1.5" stroke-linecap="round" stroke-linejoin="round"/>
  <path d="M1 36.4h11.7" stroke="#fff" stroke-width="1.5" stroke-linecap="round" stroke-linejoin="round"/>
  <path d="M11.7 41h.3M3 49.9h.2" stroke="#FD694C" stroke-width="1.5" stroke-linecap="round" stroke-linejoin="round"/>
  <path d="M9 45.5h8.7" stroke="#fff" stroke-width="1.5" stroke-linecap="round" stroke-linejoin="round"/>
  <path d="M23.4 21a4.1 4.1 0 1 0-7.6-3 4.1 4.1 0 0 0 7.6 3z" stroke="#FD694C" stroke-width="1.5" stroke-linecap="round" stroke-linejoin="round"/>
  <path d="M19.6 40.7c2.6-7.7 12-12 12-21a12 12 0 1 0-24 0c0 9 9.5 13.3 12 21z" stroke="#FD694C" stroke-width="1.5" stroke-linecap="round" stroke-linejoin="round"/>
  <path d="M54.4 4H40.6a3 3 0 0 0 0 6h3.8a3 3 0 0 1 3 2.9v0a3 3 0 0 1-3 3h-8.6" stroke="#fff" stroke-width="1.5" stroke-linecap="round" stroke-linejoin="round"/>
</svg>
